<svg width="113" height="34" viewBox="0 0 113 34" fill="none" xmlns="http://www.w3.org/2000/svg">
<g filter="url(#filter0_d_524_3)">
<path d="M9.78906 20.4219L9.74219 20.75C9.74219 20.9219 9.74219 21.0625 9.74219 21.1719C9.75781 21.2812 9.70312 21.375 9.57812 21.4531C9.5625 21.5312 9.53906 21.5859 9.50781 21.6172C9.47656 21.6484 9.44531 21.6875 9.41406 21.7344C9.25781 21.7344 9.11719 21.7578 8.99219 21.8047C8.88281 21.8516 8.76562 21.8906 8.64062 21.9219C8.59375 21.8906 8.54688 21.8672 8.5 21.8516C8.46875 21.8203 8.4375 21.7891 8.40625 21.7578C8.375 21.7109 8.34375 21.6641 8.3125 21.6172C8.29688 21.5547 8.25 21.4844 8.17188 21.4062C8.09375 21.3125 8.01562 21.2344 7.9375 21.1719C7.85938 21.1094 7.79688 20.9922 7.75 20.8203C7.71875 20.6328 7.6875 20.4453 7.65625 20.2578C7.625 20.0547 7.59375 19.8594 7.5625 19.6719L7.42188 19.25C7.42188 19.1094 7.41406 19.0312 7.39844 19.0156C7.38281 18.9844 7.34375 18.8672 7.28125 18.6641C7.23438 18.4609 7.1875 18.2734 7.14062 18.1016C7.09375 17.9141 7.05469 17.8047 7.02344 17.7734C7.00781 17.7422 6.99219 17.6953 6.97656 17.6328C6.96094 17.5547 6.95312 17.4609 6.95312 17.3516C6.95312 17.2266 6.9375 17.1016 6.90625 16.9766C6.79688 16.7578 6.73438 16.6016 6.71875 16.5078C6.71875 16.4141 6.70312 16.3125 6.67188 16.2031C6.64062 16.0938 6.60156 15.9766 6.55469 15.8516C6.52344 15.7266 6.49219 15.6094 6.46094 15.5C6.42969 15.3906 6.40625 15.2969 6.39062 15.2188C6.39062 15.125 6.35938 15.0391 6.29688 14.9609C6.3125 14.8047 6.29688 14.6641 6.25 14.5391C6.20312 14.4141 6.15625 14.2891 6.10938 14.1641C6.07812 14.0391 6.04688 13.9219 6.01562 13.8125C6 13.6875 5.96094 13.5391 5.89844 13.3672C5.83594 13.1953 5.78125 12.9375 5.73438 12.5938C5.70312 12.2344 5.64844 11.9219 5.57031 11.6562C5.53906 11.6094 5.5 11.5703 5.45312 11.5391C5.40625 11.5078 5.35938 11.4531 5.3125 11.375C5 11.0625 4.73438 10.9609 4.51562 11.0703C4.29688 11.1641 4.125 11.1172 4 10.9297C3.89062 10.7422 3.875 10.5391 3.95312 10.3203C4.01562 10.2422 4.11719 10.1875 4.25781 10.1562C4.41406 10.1094 4.55469 10.1172 4.67969 10.1797C4.85156 10.0703 4.94531 10.0391 4.96094 10.0859C4.99219 10.1172 5.03906 10.125 5.10156 10.1094C5.16406 10.0781 5.21094 10.0547 5.24219 10.0391C5.28906 10.0078 5.34375 9.98438 5.40625 9.96875C6.20312 9.96875 6.71875 9.875 6.95312 9.6875C7.21875 9.64062 7.49219 9.59375 7.77344 9.54688C8.05469 9.5 8.33594 9.50781 8.61719 9.57031C8.64844 9.47656 8.70312 9.45312 8.78125 9.5C8.85938 9.54688 8.91406 9.60156 8.94531 9.66406C8.94531 10.0078 8.84375 10.2266 8.64062 10.3203C8.4375 10.3984 8.25 10.4688 8.07812 10.5312C7.90625 10.5938 7.75781 10.6719 7.63281 10.7656C7.55469 10.9844 7.5625 11.2031 7.65625 11.4219C7.875 11.9062 7.98438 12.2344 7.98438 12.4062C8 12.5625 8.03906 12.7188 8.10156 12.875C8.17969 13.0312 8.19531 13.1484 8.14844 13.2266C8.32031 13.3984 8.44531 13.6875 8.52344 14.0938C8.60156 14.5 8.67188 14.7656 8.73438 14.8906V15.1953C8.95312 15.7578 9.05469 16.0781 9.03906 16.1562C9.03906 16.2344 9.04688 16.3125 9.0625 16.3906C9.09375 16.4688 9.11719 16.5391 9.13281 16.6016C9.16406 16.6484 9.17969 16.7031 9.17969 16.7656C9.24219 16.7969 9.27344 16.8281 9.27344 16.8594C9.28906 16.8906 9.32812 16.9062 9.39062 16.9062C9.48438 16.8906 9.57031 16.7891 9.64844 16.6016C9.72656 16.4141 9.80469 16.3203 9.88281 16.3203L10.1172 15.5234C10.0859 15.4453 10.1016 15.3984 10.1641 15.3828C10.2266 15.3516 10.2734 15.2734 10.3047 15.1484C10.3516 15.0234 10.3984 14.9375 10.4453 14.8906C10.5078 14.6406 10.5625 14.4766 10.6094 14.3984C10.6719 14.3047 10.6875 14.1719 10.6562 14C10.6875 13.9062 10.7188 13.8281 10.75 13.7656C10.7969 13.6875 10.8125 13.5781 10.7969 13.4375C10.8906 13.4062 10.9531 13.3359 10.9844 13.2266C11.0156 13.1172 11.0859 13.0469 11.1953 13.0156C11.1641 12.8594 11.1719 12.7344 11.2188 12.6406C11.2656 12.5469 11.3047 12.4141 11.3359 12.2422C11.3672 12.0703 11.4531 11.8828 11.5938 11.6797C11.75 11.4766 11.8359 11.3125 11.8516 11.1875C11.8672 11.0625 11.8906 10.9766 11.9219 10.9297C11.9688 10.8672 11.9766 10.7969 11.9453 10.7188C12.0703 10.6406 12.1719 10.5469 12.25 10.4375C12.3281 10.3125 12.4297 10.2109 12.5547 10.1328C12.6641 10.1641 12.7656 10.1953 12.8594 10.2266C12.9531 10.2578 13.0469 10.2891 13.1406 10.3203C13.1875 10.4609 13.2578 10.5859 13.3516 10.6953C13.5391 10.9141 13.6328 11.0938 13.6328 11.2344C13.6328 11.2969 13.6641 11.3984 13.7266 11.5391C13.8359 11.7734 13.9453 12.1172 14.0547 12.5703C14.2422 13.0234 14.3359 13.3203 14.3359 13.4609C14.3516 13.6016 14.3672 13.7188 14.3828 13.8125C14.4141 13.9062 14.4375 13.9766 14.4531 14.0234C14.4844 14.0703 14.5156 14.1641 14.5469 14.3047C14.5938 14.4297 14.6406 14.5938 14.6875 14.7969C14.75 14.9844 14.8047 15.1484 14.8516 15.2891C14.9141 15.4297 14.9688 15.5547 15.0156 15.6641C15.0625 15.7578 15.0859 15.8516 15.0859 15.9453C15.0859 16.0234 15.1016 16.1016 15.1328 16.1797C15.1641 16.2578 15.1953 16.3594 15.2266 16.4844C15.2734 16.5938 15.3125 16.6953 15.3438 16.7891C15.375 16.8672 15.3906 16.9609 15.3906 17.0703C15.4062 17.1641 15.4688 17.2422 15.5781 17.3047C15.625 17.2734 15.6719 17.2656 15.7188 17.2812C15.7656 17.2812 15.8047 17.2734 15.8359 17.2578C15.9609 17.1328 16.0781 17.0469 16.1875 17C16.2969 16.9531 16.3359 16.8828 16.3047 16.7891C16.2891 16.6797 16.2969 16.6016 16.3281 16.5547C16.3594 16.4453 16.4297 16.3672 16.5391 16.3203C16.5078 16.1797 16.5547 16.0547 16.6797 15.9453C16.8203 15.8203 16.8828 15.6406 16.8672 15.4062C16.8516 15.1719 16.9062 15.0156 17.0312 14.9375C17.0312 14.8594 17.0078 14.8125 16.9609 14.7969C16.9297 14.7656 16.9219 14.7109 16.9375 14.6328C17.0156 14.5547 17.0781 14.4609 17.125 14.3516C17.1875 14.2422 17.2578 14.1484 17.3359 14.0703L17.3828 13.7188C17.4609 13.6875 17.5 13.6406 17.5 13.5781L17.6641 12.9453C17.6641 12.8359 17.6797 12.7266 17.7109 12.6172C17.7891 12.4766 17.8281 12.3984 17.8281 12.3828C17.8281 12.3672 17.8438 12.3281 17.875 12.2656C17.9219 12.2031 17.9297 12.1641 17.8984 12.1484C17.8672 12.1328 17.875 12.0625 17.9219 11.9375C17.9844 11.8125 18.0078 11.7109 17.9922 11.6328C17.9922 11.5391 17.9609 11.5078 17.8984 11.5391C17.8516 11.5547 17.8203 11.5156 17.8047 11.4219C17.7578 11.3906 17.7031 11.3828 17.6406 11.3984C17.5781 11.4141 17.5156 11.4297 17.4531 11.4453C17.4062 11.4453 17.3594 11.4062 17.3125 11.3281C17.2656 11.25 17.1797 11.2031 17.0547 11.1875C16.9453 11.1562 16.7969 11.0781 16.6094 10.9531C16.5156 10.8281 16.4609 10.7734 16.4453 10.7891C16.4297 10.7891 16.4141 10.7734 16.3984 10.7422C16.3672 10.6328 16.3828 10.4922 16.4453 10.3203C16.5391 10.2734 16.6406 10.25 16.75 10.25C16.875 10.2344 16.9766 10.1953 17.0547 10.1328C17.1797 10.1641 17.3125 10.1797 17.4531 10.1797C17.6406 10.2734 17.9922 10.3203 18.5078 10.3203L18.7656 10.2734C18.875 10.2734 18.9844 10.2891 19.0938 10.3203C19.2188 10.3359 19.375 10.3516 19.5625 10.3672C19.75 10.3828 19.9766 10.3906 20.2422 10.3906C20.5078 10.375 20.7734 10.3828 21.0391 10.4141C21.0547 10.5078 21.1016 10.5938 21.1797 10.6719C21.2734 10.75 21.3047 10.8125 21.2734 10.8594C21.2734 11.0469 21.2188 11.1875 21.1094 11.2812C21.0156 11.3594 20.9141 11.4375 20.8047 11.5156C20.7422 11.4375 20.6641 11.4453 20.5703 11.5391C20.4922 11.6328 20.4141 11.6719 20.3359 11.6562C20.2578 11.6406 20.1875 11.625 20.125 11.6094C20.0781 11.5781 20.0078 11.5625 19.9141 11.5625C19.8203 11.5625 19.7656 11.5781 19.75 11.6094C19.7344 11.6406 19.6797 11.6406 19.5859 11.6094C19.5078 11.6875 19.4375 11.75 19.375 11.7969C19.3125 11.8438 19.2578 11.9141 19.2109 12.0078C19.1797 12.1016 19.1406 12.1406 19.0938 12.125C19.0469 12.1094 19.0234 12.1406 19.0234 12.2188C18.9297 12.4375 18.8203 12.5859 18.6953 12.6641C18.6953 12.8984 18.6797 13.0391 18.6484 13.0859C18.6484 13.1953 18.6172 13.2734 18.5547 13.3203C18.5078 13.3672 18.4688 13.4219 18.4375 13.4844C18.4375 13.5938 18.4141 13.6797 18.3672 13.7422C18.3359 13.7891 18.3281 13.8672 18.3438 13.9766C18.375 14.0703 18.3594 14.125 18.2969 14.1406C18.2344 14.1406 18.2031 14.1875 18.2031 14.2812C18.2031 14.375 18.1719 14.4531 18.1094 14.5156C18.0625 14.5781 18.0469 14.6719 18.0625 14.7969C18.0156 14.8906 17.9453 15.0078 17.8516 15.1484V15.4531C17.7891 15.5312 17.7422 15.625 17.7109 15.7344C17.6953 15.8281 17.6562 15.9297 17.5938 16.0391C17.5312 16.1328 17.5078 16.2031 17.5234 16.25C17.5391 16.2812 17.5156 16.3359 17.4531 16.4141C17.4062 16.4766 17.375 16.5469 17.3594 16.625C17.3438 16.7031 17.3047 16.7656 17.2422 16.8125V17.0703C17.1172 17.2266 17.0078 17.3828 16.9141 17.5391C16.9453 17.6797 16.9297 17.8281 16.8672 17.9844C16.8203 18.1406 16.8125 18.2812 16.8438 18.4062C16.7812 18.4844 16.75 18.5469 16.75 18.5938C16.7656 18.625 16.75 18.6719 16.7031 18.7344C16.6719 18.7969 16.6406 18.8438 16.6094 18.875C16.5781 18.8906 16.5547 18.9453 16.5391 19.0391C16.5234 19.1328 16.5156 19.2031 16.5156 19.25C16.5156 19.2969 16.5 19.3906 16.4688 19.5312C16.4531 19.6719 16.3906 19.7891 16.2812 19.8828C16.1719 19.9609 16.125 20.1016 16.1406 20.3047C16.2188 20.9297 16.1484 21.3516 15.9297 21.5703C15.9297 21.8047 15.8828 21.9375 15.7891 21.9688C15.8359 22.1094 15.7969 22.3047 15.6719 22.5547C15.6094 22.5703 15.5312 22.6094 15.4375 22.6719C15.3438 22.7188 15.2422 22.7422 15.1328 22.7422C15.0391 22.7422 14.9453 22.7109 14.8516 22.6484C14.7578 22.5859 14.6797 22.5547 14.6172 22.5547C14.5703 22.5391 14.5469 22.4922 14.5469 22.4141C14.4375 22.4297 14.3594 22.3594 14.3125 22.2031C14.2656 22.0312 14.2109 21.9375 14.1484 21.9219C14.1641 21.8438 14.125 21.7188 14.0312 21.5469C13.9375 21.375 13.875 21.2578 13.8438 21.1953C13.8125 21.1172 13.7969 21.0391 13.7969 20.9609C13.7969 20.8828 13.7578 20.8281 13.6797 20.7969C13.6797 20.6406 13.6484 20.4844 13.5859 20.3281C13.5391 20.1719 13.4922 20.0156 13.4453 19.8594C13.4141 19.6875 13.3828 19.5625 13.3516 19.4844C13.3203 19.3906 13.2812 19.2734 13.2344 19.1328C13.2031 18.9766 13.1719 18.7891 13.1406 18.5703C13.1094 18.3359 13.0703 18.1328 13.0234 17.9609C12.9766 17.7891 12.9375 17.6406 12.9062 17.5156C12.875 17.375 12.8359 17.2578 12.7891 17.1641C12.7578 17.0703 12.7188 16.9922 12.6719 16.9297C12.6406 16.8672 12.6094 16.8047 12.5781 16.7422C12.5625 16.6641 12.5547 16.5938 12.5547 16.5312C12.5703 16.4531 12.5703 16.3906 12.5547 16.3438C12.5391 16.2812 12.5156 16.2266 12.4844 16.1797C12.4531 16.1328 12.4219 16.0625 12.3906 15.9688C12.375 15.8594 12.3516 15.7188 12.3203 15.5469C12.3047 15.3594 12.2812 15.2109 12.25 15.1016C12.2344 14.9766 12.2109 14.8906 12.1797 14.8438C12.1641 14.7969 12.1406 14.7266 12.1094 14.6328C12.0938 14.5234 12.0938 14.4062 12.1094 14.2812C12.125 14.1562 12.0547 14.0625 11.8984 14C11.7578 14.0938 11.6875 14.2422 11.6875 14.4453C11.6875 14.6328 11.6484 14.7969 11.5703 14.9375C11.5078 15.0625 11.4609 15.125 11.4297 15.125C11.4141 15.125 11.3906 15.2109 11.3594 15.3828C11.3438 15.5547 11.2422 15.7031 11.0547 15.8281C10.9766 16.0938 10.8672 16.375 10.7266 16.6719C10.5859 16.9688 10.5156 17.1406 10.5156 17.1875C10.5312 17.2344 10.5156 17.2969 10.4688 17.375C10.4219 17.4531 10.3984 17.5391 10.3984 17.6328C10.3984 17.7266 10.3438 17.8672 10.2344 18.0547C10.1406 18.2266 10.1016 18.3828 10.1172 18.5234C10.1484 18.6484 10.1484 18.75 10.1172 18.8281C10.1016 18.9062 10.0625 18.9844 10 19.0625C9.95312 19.1406 9.91406 19.2422 9.88281 19.3672C9.86719 19.4766 9.84375 19.6016 9.8125 19.7422C9.79688 19.8672 9.76562 19.9766 9.71875 20.0703C9.6875 20.1484 9.6875 20.2109 9.71875 20.2578C9.75 20.3047 9.77344 20.3594 9.78906 20.4219ZM26.1953 11.5625L26.7578 11.375C26.9141 11.375 27.0625 11.3438 27.2031 11.2812C27.3438 11.2031 27.4375 11.1562 27.4844 11.1406L27.7656 11.0938L28.1641 11.1406C28.3359 11.1562 28.4766 11.1719 28.5859 11.1875C28.6953 11.1875 28.7969 11.2031 28.8906 11.2344C28.9844 11.2656 29.0469 11.3125 29.0781 11.375C29.1094 11.4219 29.1484 11.4688 29.1953 11.5156C29.2578 11.5469 29.2969 11.5703 29.3125 11.5859C29.3438 11.6016 29.375 11.6406 29.4062 11.7031C29.4375 11.7656 29.4609 11.8281 29.4766 11.8906C29.4922 11.9375 29.5234 12.0156 29.5703 12.125C29.6328 12.2344 29.6719 12.2891 29.6875 12.2891C29.7188 12.2891 29.7578 12.3672 29.8047 12.5234C29.8516 12.6641 29.9062 12.8125 29.9688 12.9688C30.0469 13.125 30.1094 13.2734 30.1562 13.4141C30.2031 13.5391 30.2344 13.6484 30.25 13.7422C30.2656 13.8359 30.2891 13.9141 30.3203 13.9766C30.3516 14.0391 30.3828 14.1016 30.4141 14.1641C30.4453 14.2109 30.4609 14.25 30.4609 14.2812V14.7031L30.5547 14.9609L30.5078 15.3828L30.5781 15.7344V16.0391C30.6094 16.2422 30.6328 16.4609 30.6484 16.6953C30.6641 16.9141 30.6797 17.1406 30.6953 17.375C30.7266 17.6094 30.75 17.8125 30.7656 17.9844C30.7969 18.1406 30.7812 18.3047 30.7188 18.4766C30.7656 18.6328 30.7812 18.7812 30.7656 18.9219C30.75 19.0625 30.75 19.1875 30.7656 19.2969C30.7969 19.4062 30.8281 19.5 30.8594 19.5781C30.8906 19.6562 30.9062 19.7266 30.9062 19.7891L30.8828 20.1875L30.9531 20.6562C30.9531 20.7969 30.9453 20.9531 30.9297 21.125C30.9141 21.2812 30.9219 21.4531 30.9531 21.6406C31.0938 21.7188 31.25 21.7734 31.4219 21.8047C31.6094 21.8203 31.7891 21.8516 31.9609 21.8984C31.9922 22.0078 32.0312 22.125 32.0781 22.25C32.1406 22.3594 32.1484 22.4688 32.1016 22.5781C32.1016 22.6562 32.0625 22.6953 31.9844 22.6953C31.9062 22.6953 31.8281 22.7031 31.75 22.7188C31.6875 22.7188 31.6328 22.7344 31.5859 22.7656C31.5547 22.7969 31.5156 22.8203 31.4688 22.8359H31.1406C31.0156 22.9297 30.8906 22.9766 30.7656 22.9766C30.6406 22.9766 30.5234 22.9844 30.4141 23C30.3203 23.0312 30.2422 23.0625 30.1797 23.0938C29.8203 23.25 29.6094 23.3281 29.5469 23.3281H29.2891C29.0859 23.3281 28.9609 23.3359 28.9141 23.3516C28.8828 23.3828 28.8359 23.3984 28.7734 23.3984C28.7266 23.4141 28.6719 23.4141 28.6094 23.3984C28.5625 23.3984 28.5 23.4062 28.4219 23.4219C28.3438 23.4531 28.2578 23.4844 28.1641 23.5156C28.0703 23.5625 27.9453 23.5859 27.7891 23.5859C27.6484 23.6016 27.5312 23.6172 27.4375 23.6328C27.3594 23.6641 27.2812 23.625 27.2031 23.5156C27.1719 23.2031 27.25 23.0156 27.4375 22.9531C27.5 22.9375 27.5156 22.8828 27.4844 22.7891C27.7031 22.7891 27.875 22.7344 28 22.625C28.1406 22.5156 28.3203 22.4453 28.5391 22.4141C28.6172 22.1328 28.6328 21.9062 28.5859 21.7344C28.5547 21.5625 28.5469 21.4531 28.5625 21.4062C28.5781 21.3438 28.5859 21.2969 28.5859 21.2656L28.4922 20.8672C28.4922 20.6016 28.5078 20.3281 28.5391 20.0469C28.5859 19.7656 28.5469 19.5156 28.4219 19.2969C28.5 19.1094 28.5078 18.9062 28.4453 18.6875C28.3828 18.4688 28.3359 18.2812 28.3047 18.125C28.2891 17.9688 28.2891 17.75 28.3047 17.4688C28.3359 17.1875 28.3359 16.9609 28.3047 16.7891C28.2734 16.6016 28.2422 16.4766 28.2109 16.4141C28.1953 16.3359 28.1953 16.2422 28.2109 16.1328C28.2266 16.0234 28.2109 15.8672 28.1641 15.6641C28.1328 15.4609 28.125 15.3438 28.1406 15.3125C28.1719 15.2812 28.1797 15.25 28.1641 15.2188L28.0938 14.9141C28.0781 14.7891 28.0703 14.6719 28.0703 14.5625C28.0703 14.4375 28.0781 14.3281 28.0938 14.2344C28.125 14.1406 28.1172 14.0859 28.0703 14.0703C28.0391 14.0391 28.0391 13.9531 28.0703 13.8125C28.1016 13.6719 28.0703 13.4922 27.9766 13.2734C27.8828 13.0391 27.7969 12.8281 27.7188 12.6406C27.4219 12.5469 27.1797 12.5156 26.9922 12.5469C26.8203 12.5781 26.6641 12.5938 26.5234 12.5938C26.4766 12.625 26.4375 12.6719 26.4062 12.7344C26.3906 12.7969 26.3594 12.8438 26.3125 12.875C26.1875 12.9375 26.0859 12.9922 26.0078 13.0391C25.9297 13.0859 25.8594 13.1875 25.7969 13.3438C25.6562 13.4062 25.5391 13.5 25.4453 13.625C25.3516 13.7344 25.2422 13.8359 25.1172 13.9297C24.9766 14.4297 24.8672 14.7188 24.7891 14.7969C24.7266 14.8594 24.6875 14.9297 24.6719 15.0078C24.6562 15.0703 24.6641 15.1484 24.6953 15.2422C24.7266 15.3359 24.75 15.4531 24.7656 15.5938C24.7812 15.7344 24.7812 15.8828 24.7656 16.0391C24.75 16.1953 24.75 16.4141 24.7656 16.6953C24.7812 16.9609 24.8047 17.1719 24.8359 17.3281C24.8828 17.4688 24.875 17.5547 24.8125 17.5859C24.7656 17.6172 24.75 17.6875 24.7656 17.7969C24.7969 17.9062 24.8125 18.0156 24.8125 18.125V18.5469C24.8125 18.625 24.8359 19.0391 24.8828 19.7891V20.5859C24.8828 20.8203 24.9297 20.9688 25.0234 21.0312C25.1172 21.0781 25.1875 21.1562 25.2344 21.2656C25.2969 21.3594 25.3438 21.4297 25.375 21.4766C25.4062 21.5078 25.4297 21.6016 25.4453 21.7578C25.4766 21.8984 25.4531 22.0391 25.375 22.1797C25.2969 22.3047 25.2734 22.4688 25.3047 22.6719C25.2109 22.75 25.1172 22.8281 25.0234 22.9062C24.9453 22.9688 24.8203 22.9922 24.6484 22.9766C24.5703 23.0234 24.4453 23.1562 24.2734 23.375C24.1953 23.3438 24.125 23.3438 24.0625 23.375C24.0156 23.4219 23.9453 23.4453 23.8516 23.4453C23.7578 23.4453 23.6719 23.4141 23.5938 23.3516C23.5312 23.3047 23.4531 23.2656 23.3594 23.2344C23.2656 23.2188 23.1875 23.2266 23.125 23.2578C23.0625 23.2891 22.9375 23.3203 22.75 23.3516C22.5781 23.3828 22.3438 23.3906 22.0469 23.375C21.75 23.3594 21.5 23.3828 21.2969 23.4453C21.1562 23.3047 21.0859 23.1406 21.0859 22.9531C21.1016 22.75 21.1953 22.6094 21.3672 22.5312C21.3984 22.5 21.4375 22.5 21.4844 22.5312C21.5312 22.5469 21.625 22.5234 21.7656 22.4609C21.9062 22.3984 22.0391 22.3594 22.1641 22.3438C22.2891 22.3281 22.3906 22.2812 22.4688 22.2031C22.5156 22.0938 22.5391 21.9688 22.5391 21.8281L22.5156 21.0781C22.4375 20.9062 22.3984 20.7734 22.3984 20.6797C22.3984 20.5703 22.3906 20.4766 22.375 20.3984C22.4062 20.2266 22.4062 20.0938 22.375 20C22.3594 19.8906 22.3516 19.7969 22.3516 19.7188L22.375 19.25L22.3047 18.6875C22.3047 18.5469 22.3047 18.4141 22.3047 18.2891C22.3203 18.1641 22.3125 18.0156 22.2812 17.8438C22.2656 17.6719 22.2656 17.5781 22.2812 17.5625C22.2969 17.5312 22.3047 17.4688 22.3047 17.375V17.0234C22.3047 16.8828 22.2891 16.75 22.2578 16.625L22.1875 16.2969V15.1719C22.1562 15.0156 22.1406 14.8828 22.1406 14.7734L22.1875 14.3984C22.0938 13.7109 22.0547 13.1719 22.0703 12.7812C22.0859 12.375 22.0781 12 22.0469 11.6562V11.3984C21.9688 11.1641 21.9453 10.9922 21.9766 10.8828C22.0078 10.7734 22.0234 10.6562 22.0234 10.5312L21.9062 9.75781V7.57812L21.8594 6.64062L21.7891 6.26562C21.7578 6.10938 21.7422 5.92188 21.7422 5.70312C21.7578 5.48437 21.75 5.35156 21.7188 5.30469C21.7031 5.24219 21.6953 5.14844 21.6953 5.02344C21.6953 4.88281 21.7266 4.70313 21.7891 4.48438C21.8672 4.25 21.8672 4.02344 21.7891 3.80469C21.6641 3.78906 21.5 3.78906 21.2969 3.80469C21.1094 3.82031 20.9375 3.78906 20.7812 3.71094C20.7812 3.58594 20.7656 3.48438 20.7344 3.40625C20.7031 3.3125 20.7031 3.21875 20.7344 3.125C20.8125 3.04687 20.9062 3.01563 21.0156 3.03125C21.125 3.03125 21.3125 3 21.5781 2.9375C21.8438 2.85937 22.0078 2.83594 22.0703 2.86719C22.1328 2.88281 22.2188 2.88281 22.3281 2.86719C22.4375 2.83594 22.5625 2.80469 22.7031 2.77344C22.8594 2.72656 23.0234 2.69531 23.1953 2.67969C23.4141 2.71094 23.5938 2.72656 23.7344 2.72656C23.875 2.71094 24 2.71094 24.1094 2.72656C24.2188 2.74219 24.3047 2.75 24.3672 2.75C24.4297 2.75 24.4922 2.77344 24.5547 2.82031C24.6953 3.05469 24.7266 3.23437 24.6484 3.35938C24.5703 3.48438 24.4453 3.54688 24.2734 3.54688C24.1016 3.53125 23.9688 3.57813 23.875 3.6875C23.8594 3.75 23.8516 3.8125 23.8516 3.875C23.8672 3.9375 23.875 4.00781 23.875 4.08594C23.8906 4.14844 23.8984 4.21875 23.8984 4.29688C23.8984 4.375 23.9062 4.46094 23.9219 4.55469C23.9531 4.63281 23.9844 4.71094 24.0156 4.78906C24.0625 4.86719 24.0938 4.95312 24.1094 5.04688C24.125 5.125 24.125 5.21875 24.1094 5.32812C24.0938 5.42188 24.0938 5.53906 24.1094 5.67969C24.125 5.82031 24.1484 5.98438 24.1797 6.17188C24.2266 6.35938 24.2578 6.54688 24.2734 6.73438C24.3047 6.90625 24.3203 7.11719 24.3203 7.36719C24.3359 7.61719 24.375 7.84375 24.4375 8.04688C24.3594 8.28125 24.3438 8.52344 24.3906 8.77344C24.4375 9.02344 24.4688 9.29688 24.4844 9.59375L24.4375 9.85156L24.4844 10.1094C24.4531 10.2656 24.4375 10.4062 24.4375 10.5312L24.5078 10.8828C24.5234 10.9609 24.5312 11.0312 24.5312 11.0938L24.6484 12.0312C24.6484 12.1719 24.7109 12.2656 24.8359 12.3125C24.9297 12.2812 25.0078 12.2578 25.0703 12.2422C25.1328 12.2266 25.1953 12.1953 25.2578 12.1484C25.3203 12.1016 25.3672 12.0469 25.3984 11.9844C25.4453 11.9219 25.5078 11.8672 25.5859 11.8203C25.6797 11.7734 25.7578 11.7344 25.8203 11.7031C25.9609 11.6094 26.0859 11.5625 26.1953 11.5625ZM33.4609 6.40625C33.6328 6.23438 33.7422 6.05469 33.7891 5.86719C33.8516 5.86719 33.8984 5.84375 33.9297 5.79688C33.9609 5.75 34.0391 5.70312 34.1641 5.65625C34.2891 5.60938 34.4062 5.57812 34.5156 5.5625C34.6406 5.54688 34.7891 5.5 34.9609 5.42188C35.1484 5.34375 35.3359 5.35156 35.5234 5.44531C35.6641 5.57031 35.75 5.65625 35.7812 5.70312C35.8125 5.75 35.8594 5.79688 35.9219 5.84375C36 5.875 36.0938 5.89844 36.2031 5.91406C36.3281 5.91406 36.4062 5.96875 36.4375 6.07812C36.4219 6.20312 36.375 6.29688 36.2969 6.35938C36.2188 6.40625 36.1484 6.47656 36.0859 6.57031C36.0859 6.69531 36.0859 6.84375 36.0859 7.01562C36.1016 7.17188 36.0547 7.28125 35.9453 7.34375C35.9141 7.39062 35.9141 7.44531 35.9453 7.50781C35.9922 7.55469 35.9844 7.58594 35.9219 7.60156C35.8906 7.69531 35.8203 7.76562 35.7109 7.8125C35.6016 7.84375 35.5156 7.89062 35.4531 7.95312C35.4062 8 35.3281 8.02344 35.2188 8.02344C34.6406 8.02344 34.2422 7.85938 34.0234 7.53125C33.9453 7.42188 33.8438 7.35938 33.7188 7.34375C33.6875 7.26562 33.6406 7.21094 33.5781 7.17969C33.5312 7.13281 33.4766 7.08594 33.4141 7.03906C33.4141 6.91406 33.4297 6.8125 33.4609 6.73438C33.4922 6.64062 33.4922 6.53125 33.4609 6.40625ZM35.8047 11.1875C35.9297 11.1094 36.0938 11.0703 36.2969 11.0703C36.5 11.0703 36.6641 11.0703 36.7891 11.0703C36.9141 11.0547 37.0156 11.125 37.0938 11.2812C37.1719 11.4375 37.1719 11.5859 37.0938 11.7266C37.0625 11.8516 37.0078 11.9219 36.9297 11.9375C36.7109 11.9844 36.4766 12.1328 36.2266 12.3828C36.2422 12.5078 36.25 12.6406 36.25 12.7812C36.25 12.9219 36.2578 13.0391 36.2734 13.1328C36.2891 13.2266 36.2969 13.3047 36.2969 13.3672C36.3125 13.4297 36.3281 13.5 36.3438 13.5781C36.3594 13.6406 36.375 13.6953 36.3906 13.7422C36.4219 13.7891 36.4375 13.8359 36.4375 13.8828L36.4141 14.2109C36.4453 14.3828 36.4609 14.7891 36.4609 15.4297C36.5234 15.6953 36.5469 15.8906 36.5312 16.0156C36.5156 16.125 36.5078 16.2422 36.5078 16.3672L36.6484 17.2578C36.6484 17.5078 36.625 17.8047 36.5781 18.1484C36.5312 18.4922 36.5078 18.7109 36.5078 18.8047C36.5234 18.8984 36.5234 19.0156 36.5078 19.1562C36.4922 19.2969 36.4766 19.4375 36.4609 19.5781C36.4453 19.7188 36.4531 19.8594 36.4844 20C36.5 20.0625 36.5391 20.0859 36.6016 20.0703C36.6641 20.0547 36.7266 20.0703 36.7891 20.1172C36.8516 20.1641 36.9219 20.1719 37 20.1406C37.0781 20.0938 37.1875 20.0859 37.3281 20.1172C37.5 20.2891 37.5625 20.5156 37.5156 20.7969C37.3281 20.9688 37.1953 21.0703 37.1172 21.1016C37.0547 21.1328 36.9688 21.1406 36.8594 21.125C36.7656 21.1094 36.6797 21.125 36.6016 21.1719C36.3984 21.0469 36.2422 20.9844 36.1328 20.9844C36.0391 20.9688 35.9219 21 35.7812 21.0781C35.6406 21.1562 35.5469 21.2266 35.5 21.2891C35.4531 21.3359 35.3672 21.375 35.2422 21.4062C35.1172 21.4375 34.9688 21.4297 34.7969 21.3828C34.625 21.3359 34.4609 21.3203 34.3047 21.3359C34.1484 21.3359 33.7188 21.4375 33.0156 21.6406C32.8438 21.5938 32.6719 21.5234 32.5 21.4297C32.4531 21.3203 32.4531 21.1641 32.5 20.9609C32.9062 20.7422 33.2266 20.6328 33.4609 20.6328C33.7109 20.6328 33.8594 20.5859 33.9062 20.4922C33.9531 20.3828 34.0156 20.3203 34.0938 20.3047C34.1094 20.2422 34.0859 20.1953 34.0234 20.1641C33.9766 20.1172 33.9766 20.0781 34.0234 20.0469C34.1172 19.8281 34.1406 19.6172 34.0938 19.4141C34.0469 19.1953 34.0625 18.8828 34.1406 18.4766C34.1406 18.2734 34.1172 18.0859 34.0703 17.9141C34.0234 17.7422 34.0234 17.5391 34.0703 17.3047C34.1328 17.0703 34.125 16.8594 34.0469 16.6719C34.0781 16.5312 34.1094 16.3828 34.1406 16.2266C34.1875 16.0703 34.1953 15.9219 34.1641 15.7812C34.1484 15.6406 34.1484 15.4609 34.1641 15.2422L34.3047 14.8906C34.3047 14.8594 34.2969 14.8203 34.2812 14.7734C34.2656 14.7266 34.2656 14.6406 34.2812 14.5156C34.3125 14.3906 34.3203 14.3125 34.3047 14.2812C34.2891 14.25 34.2812 14.2109 34.2812 14.1641L34.3516 13.6719C34.3672 13.6094 34.3594 13.5469 34.3281 13.4844C34.3125 13.4219 34.3047 13.3516 34.3047 13.2734C34.3516 13.1484 34.3594 13.0234 34.3281 12.8984C34.2969 12.7578 34.2812 12.6406 34.2812 12.5469C34.2969 12.4531 34.2422 12.3828 34.1172 12.3359C33.9922 12.3359 33.875 12.3438 33.7656 12.3594C33.5469 12.4062 33.3203 12.3125 33.0859 12.0781C33.1172 11.8281 33.2109 11.625 33.3672 11.4688C33.5547 11.4375 33.7109 11.4453 33.8359 11.4922C33.9766 11.5234 34.125 11.5391 34.2812 11.5391C34.4531 11.4609 34.5547 11.4297 34.5859 11.4453C34.6328 11.4453 34.7031 11.4141 34.7969 11.3516C34.9062 11.2734 34.9688 11.2422 34.9844 11.2578C35.0156 11.2578 35.0703 11.2422 35.1484 11.2109C35.2422 11.1797 35.3672 11.1641 35.5234 11.1641C35.6953 11.1641 35.7891 11.1719 35.8047 11.1875ZM43.4219 19.8359L44.0312 19.7188L44.8281 19.4609L45.2031 19.1562C45.2344 19.1562 45.2812 19.1719 45.3438 19.2031C45.4062 19.2188 45.4922 19.2188 45.6016 19.2031C45.7266 19.1719 45.8359 19.2109 45.9297 19.3203C46.0391 19.4141 46.0703 19.5 46.0234 19.5781C45.9922 19.6406 45.9922 19.7188 46.0234 19.8125C45.8984 20.0469 45.7188 20.2188 45.4844 20.3281C45.4531 20.3906 45.3984 20.4297 45.3203 20.4453C45.2578 20.4609 45.1797 20.4922 45.0859 20.5391C45.0078 20.5859 44.9062 20.6562 44.7812 20.75C44.6719 20.8438 44.5156 20.9141 44.3125 20.9609C44.1094 21.0078 43.9219 21.0781 43.75 21.1719C43.7188 21.125 43.6719 21.1172 43.6094 21.1484C43.5625 21.1641 43.5156 21.1719 43.4688 21.1719H43.1172L42.7656 21.2656C42.4688 21.2031 42.2422 21.1953 42.0859 21.2422C41.9453 21.2734 41.7969 21.2578 41.6406 21.1953C41.5 21.1172 41.4297 21.0703 41.4297 21.0547C41.4453 21.0234 41.4453 21 41.4297 20.9844C41.3047 20.9375 41.2188 20.8828 41.1719 20.8203C41.1406 20.7422 41.1094 20.6797 41.0781 20.6328C40.9688 20.5703 40.8594 20.5391 40.75 20.5391C40.6406 20.5234 40.5703 20.4375 40.5391 20.2812C40.3359 20.25 40.1953 20.1953 40.1172 20.1172C39.9922 20.0391 39.9141 19.9062 39.8828 19.7188C39.8516 19.5312 39.7578 19.3984 39.6016 19.3203C39.4609 19.1016 39.375 18.9219 39.3438 18.7812C39.3125 18.625 39.2344 18.4922 39.1094 18.3828C39.125 18.1953 39.0547 17.8984 38.8984 17.4922C38.7578 17.0859 38.7578 16.75 38.8984 16.4844C38.8984 16.4062 38.8828 16.3047 38.8516 16.1797C38.9297 16.0234 38.9688 15.8594 38.9688 15.6875C38.9844 15.5 39 15.3438 39.0156 15.2188C39.0469 15.0938 39.0703 15.0078 39.0859 14.9609C39.1641 14.8203 39.2266 14.6484 39.2734 14.4453C39.3203 14.2266 39.375 14.0547 39.4375 13.9297C39.5 13.7891 39.5391 13.6719 39.5547 13.5781C39.6172 13.5469 39.6719 13.4766 39.7188 13.3672C39.7812 13.2422 39.8672 13.1172 39.9766 12.9922C40.0859 12.8516 40.1562 12.7109 40.1875 12.5703C40.2656 12.5547 40.3203 12.5156 40.3516 12.4531C40.3984 12.3906 40.4453 12.3281 40.4922 12.2656C40.5703 12.25 40.625 12.2188 40.6562 12.1719C40.7031 12.1094 40.7891 12.0547 40.9141 12.0078C41.0391 11.9453 41.1328 11.875 41.1953 11.7969C41.2734 11.7188 41.375 11.6562 41.5 11.6094C41.625 11.5469 41.6953 11.5 41.7109 11.4688C41.7422 11.4375 41.7734 11.4219 41.8047 11.4219L42.0625 11.3516C42.1094 11.3516 42.1562 11.3594 42.2031 11.375C42.4062 11.4062 42.6562 11.2969 42.9531 11.0469C43.1562 11.0625 43.3359 11.0859 43.4922 11.1172C43.6484 11.1328 43.7812 11.0625 43.8906 10.9062C43.9688 10.9375 44.0156 10.9844 44.0312 11.0469C44.0625 11.0938 44.1172 11.1328 44.1953 11.1641C44.4141 11.1328 44.5859 11.1719 44.7109 11.2812C44.8359 11.375 44.9531 11.4922 45.0625 11.6328C45.1094 11.5859 45.1562 11.5234 45.2031 11.4453C45.25 11.3672 45.3203 11.2656 45.4141 11.1406C45.5078 11 45.6172 10.9062 45.7422 10.8594C45.8672 10.7969 45.9688 10.7969 46.0469 10.8594C46.125 10.9219 46.1875 10.9922 46.2344 11.0703C46.2969 11.1328 46.3047 11.1797 46.2578 11.2109C46.2266 11.2422 46.2266 11.2969 46.2578 11.375L46.3047 11.6562C46.2891 11.6875 46.2656 11.7812 46.2344 11.9375C46.2188 12.0938 46.2031 12.2031 46.1875 12.2656C46.1719 12.3281 46.1719 12.3828 46.1875 12.4297C46.2031 12.4766 46.1797 12.6406 46.1172 12.9219C46.0703 13.1875 46.0625 13.4844 46.0938 13.8125C46.125 14.1406 46.1328 14.3438 46.1172 14.4219C46.1016 14.5 46.0859 14.5938 46.0703 14.7031C46.0547 14.7969 46.0312 14.8672 46 14.9141C45.9219 14.9766 45.875 15.0234 45.8594 15.0547C45.8594 15.0859 45.8438 15.1172 45.8125 15.1484L45.5078 15.3359C45.2734 15.3984 45.1094 15.3359 45.0156 15.1484C44.9219 14.9609 44.8516 14.7734 44.8047 14.5859C44.9141 14.2734 44.9219 13.8828 44.8281 13.4141V13.25C44.8281 13.1562 44.7734 13.0391 44.6641 12.8984C44.5547 12.7578 44.5 12.6797 44.5 12.6641C44.5156 12.6328 44.5156 12.6016 44.5 12.5703C44.3438 12.5234 44.2031 12.4688 44.0781 12.4062C43.9531 12.3438 43.8281 12.2812 43.7031 12.2188C43.625 12.25 43.5547 12.2578 43.4922 12.2422C43.4297 12.2266 43.3594 12.2344 43.2812 12.2656C43.2188 12.2812 43.1797 12.3125 43.1641 12.3594C43.1484 12.4062 43.1172 12.4375 43.0703 12.4531L42.7656 12.5234C42.5469 12.6172 42.4297 12.7109 42.4141 12.8047C42.4141 12.8984 42.375 12.9844 42.2969 13.0625C42.2812 13.125 42.2422 13.1562 42.1797 13.1562C42.1172 13.1562 42.0781 13.1875 42.0625 13.25C41.9844 13.3281 41.9297 13.4062 41.8984 13.4844C41.8828 13.5625 41.8516 13.6562 41.8047 13.7656C41.7578 13.8594 41.7266 13.9297 41.7109 13.9766C41.6953 14.0078 41.6797 14.0625 41.6641 14.1406C41.6641 14.2188 41.6484 14.2734 41.6172 14.3047C41.6016 14.3359 41.5859 14.3906 41.5703 14.4688C41.5547 14.5312 41.5312 14.6016 41.5 14.6797C41.4844 14.7422 41.4766 14.8047 41.4766 14.8672C41.4766 14.9141 41.4531 14.9609 41.4062 15.0078C41.3594 15.0547 41.3125 15.1484 41.2656 15.2891C41.2344 15.4141 41.2188 15.5859 41.2188 15.8047C41.2344 16.0078 41.2188 16.1875 41.1719 16.3438C41.125 16.5 41.1172 16.6016 41.1484 16.6484C41.1953 16.6953 41.2344 16.75 41.2656 16.8125C41.1719 17.25 41.2344 17.6953 41.4531 18.1484C41.5 18.2266 41.5703 18.2812 41.6641 18.3125C41.6328 18.5156 41.6562 18.6562 41.7344 18.7344C41.9062 18.9219 42 19.0625 42.0156 19.1562C42.1406 19.2188 42.25 19.2891 42.3438 19.3672C42.4531 19.4453 42.5547 19.5156 42.6484 19.5781C42.8828 19.5938 43.0312 19.6406 43.0938 19.7188C43.1719 19.7969 43.2812 19.8359 43.4219 19.8359ZM52.5156 11.5625L53.0781 11.375C53.2344 11.375 53.3828 11.3438 53.5234 11.2812C53.6641 11.2031 53.7578 11.1562 53.8047 11.1406L54.0859 11.0938L54.4844 11.1406C54.6562 11.1562 54.7969 11.1719 54.9062 11.1875C55.0156 11.1875 55.1172 11.2031 55.2109 11.2344C55.3047 11.2656 55.3672 11.3125 55.3984 11.375C55.4297 11.4219 55.4688 11.4688 55.5156 11.5156C55.5781 11.5469 55.6172 11.5703 55.6328 11.5859C55.6641 11.6016 55.6953 11.6406 55.7266 11.7031C55.7578 11.7656 55.7812 11.8281 55.7969 11.8906C55.8125 11.9375 55.8438 12.0156 55.8906 12.125C55.9531 12.2344 55.9922 12.2891 56.0078 12.2891C56.0391 12.2891 56.0781 12.3672 56.125 12.5234C56.1719 12.6641 56.2266 12.8125 56.2891 12.9688C56.3672 13.125 56.4297 13.2734 56.4766 13.4141C56.5234 13.5391 56.5547 13.6484 56.5703 13.7422C56.5859 13.8359 56.6094 13.9141 56.6406 13.9766C56.6719 14.0391 56.7031 14.1016 56.7344 14.1641C56.7656 14.2109 56.7812 14.25 56.7812 14.2812V14.7031L56.875 14.9609L56.8281 15.3828L56.8984 15.7344V16.0391C56.9297 16.2422 56.9531 16.4609 56.9688 16.6953C56.9844 16.9141 57 17.1406 57.0156 17.375C57.0469 17.6094 57.0703 17.8125 57.0859 17.9844C57.1172 18.1406 57.1016 18.3047 57.0391 18.4766C57.0859 18.6328 57.1016 18.7812 57.0859 18.9219C57.0703 19.0625 57.0703 19.1875 57.0859 19.2969C57.1172 19.4062 57.1484 19.5 57.1797 19.5781C57.2109 19.6562 57.2266 19.7266 57.2266 19.7891L57.2031 20.1875L57.2734 20.6562C57.2734 20.7969 57.2656 20.9531 57.25 21.125C57.2344 21.2812 57.2422 21.4531 57.2734 21.6406C57.4141 21.7188 57.5703 21.7734 57.7422 21.8047C57.9297 21.8203 58.1094 21.8516 58.2812 21.8984C58.3125 22.0078 58.3516 22.125 58.3984 22.25C58.4609 22.3594 58.4688 22.4688 58.4219 22.5781C58.4219 22.6562 58.3828 22.6953 58.3047 22.6953C58.2266 22.6953 58.1484 22.7031 58.0703 22.7188C58.0078 22.7188 57.9531 22.7344 57.9062 22.7656C57.875 22.7969 57.8359 22.8203 57.7891 22.8359H57.4609C57.3359 22.9297 57.2109 22.9766 57.0859 22.9766C56.9609 22.9766 56.8438 22.9844 56.7344 23C56.6406 23.0312 56.5625 23.0625 56.5 23.0938C56.1406 23.25 55.9297 23.3281 55.8672 23.3281H55.6094C55.4062 23.3281 55.2812 23.3359 55.2344 23.3516C55.2031 23.3828 55.1562 23.3984 55.0938 23.3984C55.0469 23.4141 54.9922 23.4141 54.9297 23.3984C54.8828 23.3984 54.8203 23.4062 54.7422 23.4219C54.6641 23.4531 54.5781 23.4844 54.4844 23.5156C54.3906 23.5625 54.2656 23.5859 54.1094 23.5859C53.9688 23.6016 53.8516 23.6172 53.7578 23.6328C53.6797 23.6641 53.6016 23.625 53.5234 23.5156C53.4922 23.2031 53.5703 23.0156 53.7578 22.9531C53.8203 22.9375 53.8359 22.8828 53.8047 22.7891C54.0234 22.7891 54.1953 22.7344 54.3203 22.625C54.4609 22.5156 54.6406 22.4453 54.8594 22.4141C54.9375 22.1328 54.9531 21.9062 54.9062 21.7344C54.875 21.5625 54.8672 21.4531 54.8828 21.4062C54.8984 21.3438 54.9062 21.2969 54.9062 21.2656L54.8125 20.8672C54.8125 20.6016 54.8281 20.3281 54.8594 20.0469C54.9062 19.7656 54.8672 19.5156 54.7422 19.2969C54.8203 19.1094 54.8281 18.9062 54.7656 18.6875C54.7031 18.4688 54.6562 18.2812 54.625 18.125C54.6094 17.9688 54.6094 17.75 54.625 17.4688C54.6562 17.1875 54.6562 16.9609 54.625 16.7891C54.5938 16.6016 54.5625 16.4766 54.5312 16.4141C54.5156 16.3359 54.5156 16.2422 54.5312 16.1328C54.5469 16.0234 54.5312 15.8672 54.4844 15.6641C54.4531 15.4609 54.4453 15.3438 54.4609 15.3125C54.4922 15.2812 54.5 15.25 54.4844 15.2188L54.4141 14.9141C54.3984 14.7891 54.3906 14.6719 54.3906 14.5625C54.3906 14.4375 54.3984 14.3281 54.4141 14.2344C54.4453 14.1406 54.4375 14.0859 54.3906 14.0703C54.3594 14.0391 54.3594 13.9531 54.3906 13.8125C54.4219 13.6719 54.3906 13.4922 54.2969 13.2734C54.2031 13.0391 54.1172 12.8281 54.0391 12.6406C53.7422 12.5469 53.5 12.5156 53.3125 12.5469C53.1406 12.5781 52.9844 12.5938 52.8438 12.5938C52.7969 12.625 52.7578 12.6719 52.7266 12.7344C52.7109 12.7969 52.6797 12.8438 52.6328 12.875C52.5078 12.9375 52.4062 12.9922 52.3281 13.0391C52.25 13.0859 52.1797 13.1875 52.1172 13.3438C51.9766 13.4062 51.8594 13.5 51.7656 13.625C51.6719 13.7344 51.5625 13.8359 51.4375 13.9297C51.2969 14.4297 51.1875 14.7188 51.1094 14.7969C51.0469 14.8594 51.0078 14.9297 50.9922 15.0078C50.9766 15.0703 50.9844 15.1484 51.0156 15.2422C51.0469 15.3359 51.0703 15.4531 51.0859 15.5938C51.1016 15.7344 51.1016 15.8828 51.0859 16.0391C51.0703 16.1953 51.0703 16.4141 51.0859 16.6953C51.1016 16.9609 51.125 17.1719 51.1562 17.3281C51.2031 17.4688 51.1953 17.5547 51.1328 17.5859C51.0859 17.6172 51.0703 17.6875 51.0859 17.7969C51.1172 17.9062 51.1328 18.0156 51.1328 18.125V18.5469C51.1328 18.625 51.1562 19.0391 51.2031 19.7891V20.5859C51.2031 20.8203 51.25 20.9688 51.3438 21.0312C51.4375 21.0781 51.5078 21.1562 51.5547 21.2656C51.6172 21.3594 51.6641 21.4297 51.6953 21.4766C51.7266 21.5078 51.75 21.6016 51.7656 21.7578C51.7969 21.8984 51.7734 22.0391 51.6953 22.1797C51.6172 22.3047 51.5938 22.4688 51.625 22.6719C51.5312 22.75 51.4375 22.8281 51.3438 22.9062C51.2656 22.9688 51.1406 22.9922 50.9688 22.9766C50.8906 23.0234 50.7656 23.1562 50.5938 23.375C50.5156 23.3438 50.4453 23.3438 50.3828 23.375C50.3359 23.4219 50.2656 23.4453 50.1719 23.4453C50.0781 23.4453 49.9922 23.4141 49.9141 23.3516C49.8516 23.3047 49.7734 23.2656 49.6797 23.2344C49.5859 23.2188 49.5078 23.2266 49.4453 23.2578C49.3828 23.2891 49.2578 23.3203 49.0703 23.3516C48.8984 23.3828 48.6641 23.3906 48.3672 23.375C48.0703 23.3594 47.8203 23.3828 47.6172 23.4453C47.4766 23.3047 47.4062 23.1406 47.4062 22.9531C47.4219 22.75 47.5156 22.6094 47.6875 22.5312C47.7188 22.5 47.7578 22.5 47.8047 22.5312C47.8516 22.5469 47.9453 22.5234 48.0859 22.4609C48.2266 22.3984 48.3594 22.3594 48.4844 22.3438C48.6094 22.3281 48.7109 22.2812 48.7891 22.2031C48.8359 22.0938 48.8594 21.9688 48.8594 21.8281L48.8359 21.0781C48.7578 20.9062 48.7188 20.7734 48.7188 20.6797C48.7188 20.5703 48.7109 20.4766 48.6953 20.3984C48.7266 20.2266 48.7266 20.0938 48.6953 20C48.6797 19.8906 48.6719 19.7969 48.6719 19.7188L48.6953 19.25L48.625 18.6875C48.625 18.5469 48.625 18.4141 48.625 18.2891C48.6406 18.1641 48.6328 18.0156 48.6016 17.8438C48.5859 17.6719 48.5859 17.5781 48.6016 17.5625C48.6172 17.5312 48.625 17.4688 48.625 17.375V17.0234C48.625 16.8828 48.6094 16.75 48.5781 16.625L48.5078 16.2969V15.1719C48.4766 15.0156 48.4609 14.8828 48.4609 14.7734L48.5078 14.3984C48.4141 13.7109 48.375 13.1719 48.3906 12.7812C48.4062 12.375 48.3984 12 48.3672 11.6562V11.3984C48.2891 11.1641 48.2656 10.9922 48.2969 10.8828C48.3281 10.7734 48.3438 10.6562 48.3438 10.5312L48.2266 9.75781V7.57812L48.1797 6.64062L48.1094 6.26562C48.0781 6.10938 48.0625 5.92188 48.0625 5.70312C48.0781 5.48437 48.0703 5.35156 48.0391 5.30469C48.0234 5.24219 48.0156 5.14844 48.0156 5.02344C48.0156 4.88281 48.0469 4.70313 48.1094 4.48438C48.1875 4.25 48.1875 4.02344 48.1094 3.80469C47.9844 3.78906 47.8203 3.78906 47.6172 3.80469C47.4297 3.82031 47.2578 3.78906 47.1016 3.71094C47.1016 3.58594 47.0859 3.48438 47.0547 3.40625C47.0234 3.3125 47.0234 3.21875 47.0547 3.125C47.1328 3.04687 47.2266 3.01563 47.3359 3.03125C47.4453 3.03125 47.6328 3 47.8984 2.9375C48.1641 2.85937 48.3281 2.83594 48.3906 2.86719C48.4531 2.88281 48.5391 2.88281 48.6484 2.86719C48.7578 2.83594 48.8828 2.80469 49.0234 2.77344C49.1797 2.72656 49.3438 2.69531 49.5156 2.67969C49.7344 2.71094 49.9141 2.72656 50.0547 2.72656C50.1953 2.71094 50.3203 2.71094 50.4297 2.72656C50.5391 2.74219 50.625 2.75 50.6875 2.75C50.75 2.75 50.8125 2.77344 50.875 2.82031C51.0156 3.05469 51.0469 3.23437 50.9688 3.35938C50.8906 3.48438 50.7656 3.54688 50.5938 3.54688C50.4219 3.53125 50.2891 3.57813 50.1953 3.6875C50.1797 3.75 50.1719 3.8125 50.1719 3.875C50.1875 3.9375 50.1953 4.00781 50.1953 4.08594C50.2109 4.14844 50.2188 4.21875 50.2188 4.29688C50.2188 4.375 50.2266 4.46094 50.2422 4.55469C50.2734 4.63281 50.3047 4.71094 50.3359 4.78906C50.3828 4.86719 50.4141 4.95312 50.4297 5.04688C50.4453 5.125 50.4453 5.21875 50.4297 5.32812C50.4141 5.42188 50.4141 5.53906 50.4297 5.67969C50.4453 5.82031 50.4688 5.98438 50.5 6.17188C50.5469 6.35938 50.5781 6.54688 50.5938 6.73438C50.625 6.90625 50.6406 7.11719 50.6406 7.36719C50.6562 7.61719 50.6953 7.84375 50.7578 8.04688C50.6797 8.28125 50.6641 8.52344 50.7109 8.77344C50.7578 9.02344 50.7891 9.29688 50.8047 9.59375L50.7578 9.85156L50.8047 10.1094C50.7734 10.2656 50.7578 10.4062 50.7578 10.5312L50.8281 10.8828C50.8438 10.9609 50.8516 11.0312 50.8516 11.0938L50.9688 12.0312C50.9688 12.1719 51.0312 12.2656 51.1562 12.3125C51.25 12.2812 51.3281 12.2578 51.3906 12.2422C51.4531 12.2266 51.5156 12.1953 51.5781 12.1484C51.6406 12.1016 51.6875 12.0469 51.7188 11.9844C51.7656 11.9219 51.8281 11.8672 51.9062 11.8203C52 11.7734 52.0781 11.7344 52.1406 11.7031C52.2812 11.6094 52.4062 11.5625 52.5156 11.5625ZM65.6641 5.44531H65.9922C66.0234 5.50781 66.0703 5.54688 66.1328 5.5625C66.1953 5.5625 66.2422 5.59375 66.2734 5.65625C66.4297 5.625 66.5547 5.64063 66.6484 5.70312C66.7422 5.76562 66.8359 5.82031 66.9297 5.86719C67.0234 5.89844 67.1016 5.92188 67.1641 5.9375C67.2891 5.96875 67.3984 6.03125 67.4922 6.125L67.6797 6.3125C67.7266 6.34375 67.7656 6.38281 67.7969 6.42969C67.8281 6.46094 67.8906 6.53125 67.9844 6.64062C68.0938 6.73438 68.1562 6.8125 68.1719 6.875C68.2031 6.9375 68.2344 6.98438 68.2656 7.01562C68.2969 7.04688 68.3438 7.11719 68.4062 7.22656C68.4844 7.33594 68.5547 7.47656 68.6172 7.64844C68.6953 7.80469 68.7578 7.9375 68.8047 8.04688C68.8516 8.14062 68.8984 8.25781 68.9453 8.39844C69.0078 8.53906 69.0391 8.65625 69.0391 8.75C69.0391 8.84375 69.0781 8.92188 69.1562 8.98438C69.1875 9.35938 69.2344 9.67969 69.2969 9.94531C69.375 10.1953 69.4141 10.3672 69.4141 10.4609C69.4141 10.5391 69.4297 10.6797 69.4609 10.8828C69.4922 11.0859 69.4922 11.25 69.4609 11.375C69.4297 11.5 69.4141 11.5859 69.4141 11.6328C69.4141 11.6797 69.3984 11.7422 69.3672 11.8203C69.3516 11.8984 69.2969 11.9844 69.2031 12.0781C69.125 12.1719 69.0938 12.2969 69.1094 12.4531C69.0469 12.5 69 12.5547 68.9688 12.6172C68.9375 12.6641 68.8906 12.7031 68.8281 12.7344C68.7656 13.0469 68.6641 13.3125 68.5234 13.5312C68.3828 13.7344 68.25 13.9609 68.125 14.2109C68.0312 14.2422 67.9453 14.2891 67.8672 14.3516C67.6016 14.6016 67.3281 14.7109 67.0469 14.6797C66.9844 14.7109 66.9531 14.7734 66.9531 14.8672C66.9688 14.9453 66.9453 15 66.8828 15.0312C66.8047 15.1094 66.7109 15.1641 66.6016 15.1953C66.4922 15.2266 66.4219 15.3047 66.3906 15.4297C66.2812 15.4141 66.2031 15.4375 66.1562 15.5C66.125 15.5625 66.0781 15.6094 66.0156 15.6406C65.6875 15.6562 65.4453 15.6953 65.2891 15.7578C65.1328 15.8203 65.0156 15.8594 64.9375 15.875C64.8594 15.875 64.7656 15.8906 64.6562 15.9219C64.5469 15.9375 64.4141 15.9453 64.2578 15.9453C64.1016 15.9453 63.9375 15.9297 63.7656 15.8984C63.6094 15.8672 63.4922 15.8906 63.4141 15.9688C63.3359 16.0312 63.2656 16.125 63.2031 16.25C63.1562 16.3594 63.125 16.4453 63.1094 16.5078C63.0938 16.5703 63.0391 16.6953 62.9453 16.8828C62.8672 17.0703 62.8438 17.2188 62.875 17.3281C62.9062 17.4219 62.9219 17.5078 62.9219 17.5859L62.8984 18.2422C62.8984 18.5703 62.9375 18.9062 63.0156 19.25C62.9375 19.3281 62.9141 19.4141 62.9453 19.5078C62.9922 19.6016 63.0156 19.7109 63.0156 19.8359L62.9688 20.3281C63 20.5781 63.0078 20.7656 62.9922 20.8906C62.9922 21.0156 63.0547 21.1016 63.1797 21.1484C63.1953 21.2266 63.2031 21.2969 63.2031 21.3594C63.2188 21.4062 63.25 21.4609 63.2969 21.5234C63.5 21.4609 63.6406 21.4297 63.7188 21.4297H63.9062C64.0781 21.4609 64.1953 21.5469 64.2578 21.6875C64.3359 21.8281 64.3672 21.9531 64.3516 22.0625C64.3516 22.1562 64.2969 22.2578 64.1875 22.3672C64.0781 22.4609 63.9688 22.5234 63.8594 22.5547C63.7656 22.5703 63.6875 22.5625 63.625 22.5312C63.5625 22.5 63.5 22.4844 63.4375 22.4844C63.375 22.4844 63.3203 22.5 63.2734 22.5312C63.2266 22.5625 63.1719 22.5859 63.1094 22.6016C63.0469 22.6172 62.9688 22.6094 62.875 22.5781C62.7969 22.5312 62.7188 22.5547 62.6406 22.6484C62.375 22.5703 62.1406 22.6172 61.9375 22.7891C61.5938 22.7266 61.3984 22.7266 61.3516 22.7891C61.3203 22.8359 61.2812 22.875 61.2344 22.9062C61.0156 22.875 60.7031 22.9219 60.2969 23.0469C59.9062 23.1719 59.5938 23.1875 59.3594 23.0938C59.2812 22.9531 59.2656 22.8125 59.3125 22.6719C59.375 22.5156 59.4531 22.3984 59.5469 22.3203C59.7188 22.3516 59.8594 22.3281 59.9688 22.25C60.0938 22.1562 60.2188 22.1094 60.3438 22.1094C60.3594 22.0156 60.3828 21.9688 60.4141 21.9688C60.4609 21.9531 60.5 21.9062 60.5312 21.8281C60.5625 21.7344 60.5859 21.6641 60.6016 21.6172C60.6328 21.5703 60.6562 21.5156 60.6719 21.4531C60.7031 21.3906 60.7109 21.3359 60.6953 21.2891C60.6953 21.2266 60.7031 21.1719 60.7188 21.125C60.75 21.0625 60.7266 20.9844 60.6484 20.8906C60.5703 20.7969 60.5547 20.6797 60.6016 20.5391C60.6484 20.3828 60.6641 20.2812 60.6484 20.2344C60.6484 20.1719 60.6562 20.1094 60.6719 20.0469L60.7422 19.6953L60.6719 19.2734C60.6562 19.2109 60.6406 19.1406 60.625 19.0625C60.6094 18.9844 60.5938 18.9141 60.5781 18.8516L60.4844 18.5703C60.5312 18.3359 60.5391 18.1641 60.5078 18.0547C60.4766 17.9453 60.4531 17.8438 60.4375 17.75C60.4219 17.6562 60.4141 17.5703 60.4141 17.4922C60.4141 17.4141 60.4062 17.3359 60.3906 17.2578L60.3203 16.9062L60.3672 16.625C60.3047 15.5 60.2734 14.8203 60.2734 14.5859C60.2891 14.3359 60.2734 14.1406 60.2266 14C60.2109 13.8281 60.2109 13.6484 60.2266 13.4609C60.2422 13.2734 60.2422 13.125 60.2266 13.0156L60.2031 11.1875V10.9297C60.2188 10.7109 60.2109 10.5625 60.1797 10.4844C60.1641 10.4062 60.1484 10.2344 60.1328 9.96875C60.1328 9.70312 60.1016 9.32812 60.0391 8.84375C59.9766 8.35938 59.9453 7.89062 59.9453 7.4375L59.8984 7.08594C59.8984 6.96094 59.9141 6.82031 59.9453 6.66406C59.9922 6.49219 60 6.35938 59.9688 6.26562C59.9531 6.15625 59.9219 6.07812 59.875 6.03125C59.8281 5.96875 59.7812 5.89844 59.7344 5.82031C59.5625 5.80469 59.4141 5.82031 59.2891 5.86719C59.1797 5.89844 59.0312 5.91406 58.8438 5.91406C58.6719 5.91406 58.5469 5.875 58.4688 5.79688C58.3906 5.71875 58.3125 5.60156 58.2344 5.44531C58.3438 5.14844 58.4219 4.97656 58.4688 4.92969C58.9219 4.92969 59.2109 4.85938 59.3359 4.71875C59.4766 4.75 59.6016 4.74219 59.7109 4.69531C59.8359 4.63281 59.9609 4.64844 60.0859 4.74219C60.1953 4.69531 60.3125 4.69531 60.4375 4.74219C60.5625 4.77344 60.6875 4.78906 60.8125 4.78906L61.5391 4.74219L61.9844 4.83594L62.5703 4.78906L62.9688 4.88281C63.25 4.85156 63.4375 4.85156 63.5312 4.88281C63.6406 4.91406 63.7422 4.92969 63.8359 4.92969H64.0469C64.0938 4.92969 64.1484 4.9375 64.2109 4.95312C64.3203 5.03125 64.3828 5.07031 64.3984 5.07031C64.4297 5.05469 64.5703 5.07813 64.8203 5.14062C65.0859 5.1875 65.3672 5.28906 65.6641 5.44531ZM64.2109 6.47656L63.1797 6.40625C62.8828 6.375 62.7031 6.4375 62.6406 6.59375C62.5781 6.73438 62.5625 6.85156 62.5938 6.94531C62.6406 7.02344 62.6719 7.11719 62.6875 7.22656C62.5938 7.36719 62.5625 7.66406 62.5938 8.11719C62.6406 8.55469 62.6719 8.89844 62.6875 9.14844C62.7188 9.39844 62.7344 9.64062 62.7344 9.875C62.7344 10.0938 62.7031 10.2891 62.6406 10.4609C62.7188 10.5391 62.75 10.6484 62.7344 10.7891C62.7344 10.9297 62.7344 11.0234 62.7344 11.0703L62.8047 11.6562C62.8203 11.9531 62.8203 12.2422 62.8047 12.5234C62.7891 12.7891 62.8203 13.0234 62.8984 13.2266C62.8203 13.2891 62.7891 13.375 62.8047 13.4844C62.8359 13.5781 62.8359 13.7031 62.8047 13.8594C62.7891 14.0156 62.8203 14.1797 62.8984 14.3516C62.9766 14.4453 63.0234 14.5234 63.0391 14.5859C63.0703 14.6484 63.1016 14.6953 63.1328 14.7266C63.2891 14.8047 63.3672 14.8516 63.3672 14.8672C63.3672 14.8828 63.3828 14.8984 63.4141 14.9141C63.6953 14.8359 63.9141 14.7969 64.0703 14.7969L64.7969 14.7031C64.9219 14.7031 65.0078 14.6562 65.0547 14.5625C65.1016 14.4688 65.1484 14.4062 65.1953 14.375C65.2578 14.3281 65.3203 14.2969 65.3828 14.2812C65.4453 14.25 65.5078 14.2188 65.5703 14.1875C65.6172 14.0625 65.6875 13.9844 65.7812 13.9531C65.8906 13.9219 65.9844 13.8672 66.0625 13.7891C66.1094 13.6641 66.1406 13.6016 66.1562 13.6016C66.1875 13.6016 66.2109 13.5859 66.2266 13.5547C66.2578 13.5078 66.2734 13.4609 66.2734 13.4141C66.2891 13.3516 66.3125 13.2891 66.3438 13.2266C66.3906 13.1641 66.4375 13.0859 66.4844 12.9922C66.5312 12.8984 66.5859 12.8125 66.6484 12.7344C66.6328 12.5156 66.6562 12.3359 66.7188 12.1953C66.7812 12.0547 66.8281 11.8984 66.8594 11.7266C66.9062 11.5547 66.9375 11.3672 66.9531 11.1641C66.9688 10.9609 67.0156 10.7656 67.0938 10.5781C66.9844 10.1094 66.9688 9.71094 67.0469 9.38281C66.9844 8.03906 66.6875 7.21094 66.1562 6.89844C66.125 6.83594 66.0859 6.82812 66.0391 6.875C66.0078 6.92188 65.9609 6.92969 65.8984 6.89844C65.8359 6.78906 65.5859 6.67188 65.1484 6.54688C64.9766 6.46875 64.8203 6.4375 64.6797 6.45312C64.5547 6.46875 64.3984 6.47656 64.2109 6.47656ZM71.5938 12.7344L71.5469 12.4297C71.5312 12.2578 71.5469 12.1016 71.5938 11.9609C71.6406 11.8203 71.5859 11.6875 71.4297 11.5625C71.3516 11.5625 71.2422 11.5938 71.1016 11.6562C70.9766 11.7031 70.8672 11.7188 70.7734 11.7031C70.6953 11.6719 70.6172 11.6484 70.5391 11.6328C70.4766 11.6172 70.4141 11.6172 70.3516 11.6328C70.2891 11.6328 70.2344 11.5703 70.1875 11.4453C70.1406 11.3203 70.1641 11.1719 70.2578 11C70.3516 10.8281 70.4688 10.7266 70.6094 10.6953C70.75 10.6484 70.9375 10.625 71.1719 10.625C71.4062 10.6094 71.5703 10.5781 71.6641 10.5312C71.7734 10.4688 71.8438 10.4219 71.875 10.3906C71.9219 10.3438 71.9688 10.3047 72.0156 10.2734C72.25 10.2109 72.3984 10.1875 72.4609 10.2031C72.5234 10.2031 72.5781 10.1641 72.625 10.0859C72.9062 10.0703 73.1016 10.1406 73.2109 10.2969C73.3203 10.4531 73.4453 10.6016 73.5859 10.7422C73.5547 10.8672 73.5703 10.9766 73.6328 11.0703C73.7109 11.1641 73.7656 11.2812 73.7969 11.4219C73.8438 11.5469 73.8594 11.6484 73.8438 11.7266C73.8281 11.8047 73.875 11.8984 73.9844 12.0078C74.2344 12.0234 74.4141 11.9453 74.5234 11.7734C74.6484 11.6016 74.7734 11.4453 74.8984 11.3047C74.9922 11.2422 75.0859 11.1797 75.1797 11.1172C75.2734 11.0547 75.3438 11.0156 75.3906 11C75.4531 10.9844 75.5234 10.9609 75.6016 10.9297C75.6641 10.8672 75.7031 10.8047 75.7188 10.7422C75.75 10.6641 75.7812 10.6172 75.8125 10.6016C75.8438 10.5703 75.9375 10.5234 76.0938 10.4609C76.25 10.3984 76.3203 10.3203 76.3047 10.2266C76.5547 10.2578 76.8281 10.25 77.125 10.2031C77.4375 10.1562 77.6641 10.1406 77.8047 10.1562C77.9453 10.1562 78.1094 10.1328 78.2969 10.0859C78.3906 10.1172 78.4766 10.1719 78.5547 10.25C78.6328 10.3125 78.7188 10.375 78.8125 10.4375C78.9219 10.5 78.9766 10.5781 78.9766 10.6719C78.9922 10.75 79.0391 10.8438 79.1172 10.9531C79.2109 11.0625 79.3047 11.1875 79.3984 11.3281C79.4766 11.5469 79.5391 11.7344 79.5859 11.8906C79.6484 12.0312 79.6719 12.1953 79.6562 12.3828C79.6562 12.5547 79.6328 12.7109 79.5859 12.8516C79.5391 12.9922 79.4922 13.1406 79.4453 13.2969C79.2891 13.4062 79.2031 13.5312 79.1875 13.6719C78.9844 13.8125 78.8359 13.9453 78.7422 14.0703C78.6641 14.1953 78.5859 14.2734 78.5078 14.3047C78.4453 14.3359 78.3516 14.3438 78.2266 14.3281C78.1172 14.3125 78.0078 14.3047 77.8984 14.3047C77.7891 14.3047 77.6719 14.2734 77.5469 14.2109C77.4219 14.1484 77.2734 14.1016 77.1016 14.0703C77.0703 14.0391 77.0469 14.0078 77.0312 13.9766C77.0156 13.9297 76.9922 13.8906 76.9609 13.8594C76.9297 13.8125 76.8828 13.7734 76.8203 13.7422C76.7734 13.7109 76.7266 13.6562 76.6797 13.5781C76.4922 13.2812 76.4844 13.0391 76.6562 12.8516C76.9375 12.7578 77.1484 12.6875 77.2891 12.6406C77.4297 12.5781 77.5391 12.6562 77.6172 12.875C77.7578 12.875 77.8828 12.8359 77.9922 12.7578C78.0391 12.5859 78.0781 12.4844 78.1094 12.4531C78.1562 12.4219 78.1797 12.3594 78.1797 12.2656C78.1797 12.1562 78.1875 12.0938 78.2031 12.0781L78.0859 11.6797C78.0234 11.5859 77.9844 11.5391 77.9688 11.5391C77.9688 11.5234 77.9219 11.4609 77.8281 11.3516C77.75 11.2422 77.6797 11.1797 77.6172 11.1641C77.5078 11.1328 77.375 11.1641 77.2188 11.2578C77.0625 11.3359 76.8906 11.3594 76.7031 11.3281C76.6094 11.3594 76.5312 11.4375 76.4688 11.5625C76.4062 11.6875 76.3125 11.7578 76.1875 11.7734C75.7656 12.1484 75.4609 12.4062 75.2734 12.5469C75.2891 12.6094 75.2578 12.6641 75.1797 12.7109C75.1016 12.7422 75.0391 12.7969 74.9922 12.875C74.9609 12.9531 74.9375 13.0156 74.9219 13.0625C74.9219 13.1094 74.8984 13.1719 74.8516 13.25C74.8047 13.3125 74.7734 13.3672 74.7578 13.4141C74.7578 13.4453 74.7422 13.4844 74.7109 13.5312C74.6797 13.5625 74.6641 13.6328 74.6641 13.7422C74.6641 13.8359 74.6484 13.9219 74.6172 14C74.5234 14.125 74.4766 14.2188 74.4766 14.2812C74.4922 14.3281 74.4844 14.375 74.4531 14.4219C74.4219 14.4531 74.3828 14.4844 74.3359 14.5156C74.3047 14.5312 74.2812 14.5703 74.2656 14.6328C74.3438 14.7422 74.3516 14.8359 74.2891 14.9141C74.2422 14.9922 74.25 15.1016 74.3125 15.2422C74.375 15.3203 74.3984 15.4062 74.3828 15.5C74.3828 15.5938 74.3906 15.6953 74.4062 15.8047C74.4219 15.9141 74.4297 16.0312 74.4297 16.1562C74.4297 16.2656 74.4375 16.4219 74.4531 16.625C74.4219 16.7188 74.4219 16.7891 74.4531 16.8359C74.5 16.8828 74.5234 16.9531 74.5234 17.0469V17.375C74.5234 17.4688 74.5312 17.5859 74.5469 17.7266C74.5781 17.8516 74.5859 17.9609 74.5703 18.0547C74.5703 18.1484 74.5781 18.2656 74.5938 18.4062C74.625 18.5469 74.6328 18.625 74.6172 18.6406C74.6016 18.6562 74.6016 18.6875 74.6172 18.7344C74.6328 18.7812 74.6484 18.8359 74.6641 18.8984C74.6953 18.9453 74.7109 18.9922 74.7109 19.0391L74.6641 19.2969L74.7109 19.6016C74.7109 19.8203 74.7344 20.0078 74.7812 20.1641C74.8281 20.3047 74.8359 20.4844 74.8047 20.7031C74.8203 20.75 74.8438 20.8203 74.875 20.9141C74.9219 21.0078 74.9609 21.1094 74.9922 21.2188C75.0234 21.3281 75.25 21.3828 75.6719 21.3828L76.4688 21.3359C76.5312 21.4453 76.5781 21.5938 76.6094 21.7812C76.6406 21.9531 76.625 22.0938 76.5625 22.2031L75.625 22.3438C75.5 22.375 75.375 22.3984 75.25 22.4141C75.125 22.4141 75.0078 22.4844 74.8984 22.625C74.4453 22.6562 74.1641 22.7031 74.0547 22.7656C73.9453 22.8281 73.8359 22.8438 73.7266 22.8125C73.6328 22.7656 73.5469 22.7578 73.4688 22.7891C73.3906 22.8047 73.3281 22.8281 73.2812 22.8594C73.1406 22.9531 72.9688 22.9844 72.7656 22.9531C72.5625 22.9062 72.3984 22.9297 72.2734 23.0234C72.1641 23.1172 72.0703 23.1797 71.9922 23.2109C71.5547 23.1328 71.3047 23.125 71.2422 23.1875C71.0703 23.3594 70.875 23.3672 70.6562 23.2109C70.6094 22.6797 70.7266 22.3281 71.0078 22.1562C71.1016 22.1094 71.2266 22.0781 71.3828 22.0625C71.5547 22.0469 71.6719 22 71.7344 21.9219C71.8281 21.9219 71.9062 21.8984 71.9688 21.8516C72.0312 21.8047 72.1016 21.7656 72.1797 21.7344C72.1328 21.2656 72.1094 20.875 72.1094 20.5625C72.1094 20.25 72.0938 20.0156 72.0625 19.8594C72.0469 19.7031 72.0312 19.5547 72.0156 19.4141C72 19.2578 71.9844 19.0312 71.9688 18.7344C71.9688 18.4219 71.9609 18.1562 71.9453 17.9375C71.9297 17.7031 71.8984 17.5078 71.8516 17.3516C71.8203 17.1797 71.7969 16.9531 71.7812 16.6719C71.7656 16.3906 71.7344 16.0703 71.6875 15.7109L71.6406 15.3594C71.625 15.2812 71.625 15.2109 71.6406 15.1484C71.6719 15.0859 71.6875 15.0391 71.6875 15.0078C71.6875 14.9609 71.6719 14.6562 71.6406 14.0938C71.6094 13.5156 71.6016 13.1797 71.6172 13.0859C71.6328 12.9766 71.625 12.8594 71.5938 12.7344ZM86.0312 10.2031C86.2031 10.2812 86.2891 10.3359 86.2891 10.3672C86.2891 10.3828 86.3203 10.3984 86.3828 10.4141C86.4609 10.4141 86.5078 10.4375 86.5234 10.4844C86.5391 10.5156 86.5703 10.5469 86.6172 10.5781C86.6641 10.6094 86.7266 10.6406 86.8047 10.6719C86.8828 10.7031 86.9609 10.7578 87.0391 10.8359C87.1172 10.9141 87.2344 11.0078 87.3906 11.1172C87.5469 11.2266 87.7734 11.4375 88.0703 11.75C88.3672 12.0625 88.5469 12.3281 88.6094 12.5469C88.6719 12.7656 88.7109 12.8984 88.7266 12.9453C88.7578 12.9922 88.7656 13.0703 88.75 13.1797C88.75 13.2734 88.7734 13.4844 88.8203 13.8125C88.8828 14.1406 88.8672 14.4297 88.7734 14.6797L88.5859 15.2656C88.5703 15.3125 88.5625 15.3672 88.5625 15.4297C88.5625 15.4922 88.5312 15.5625 88.4688 15.6406C88.4062 15.7188 88.375 15.7734 88.375 15.8047C88.3906 15.8359 88.3672 15.8984 88.3047 15.9922C88.2578 16.0703 88.2188 16.1094 88.1875 16.1094C88.1406 16.125 88.0547 16.2578 87.9297 16.5078C87.8203 16.7578 87.7031 16.9062 87.5781 16.9531C87.4531 16.9844 87.3516 17.0156 87.2734 17.0469C87.1016 17.1719 86.9531 17.3203 86.8281 17.4922C86.7031 17.6484 86.5703 17.7734 86.4297 17.8672C86.2891 17.9453 86.1484 18.0078 86.0078 18.0547C85.8828 18.1016 85.7734 18.1719 85.6797 18.2656C85.5859 18.2344 85.5 18.2422 85.4219 18.2891C85.3594 18.3359 85.2969 18.375 85.2344 18.4062C85.1719 18.4219 85.1172 18.4297 85.0703 18.4297C85.0391 18.4297 84.9844 18.4453 84.9062 18.4766C84.4844 18.6641 84.1172 18.6953 83.8047 18.5703C83.7422 18.5391 83.6562 18.5156 83.5469 18.5C83.4531 18.4688 83.2969 18.4219 83.0781 18.3594C82.875 18.2812 82.7109 18.1797 82.5859 18.0547C82.4766 17.9141 82.3672 17.8281 82.2578 17.7969C82.1953 17.625 82.0938 17.5 81.9531 17.4219C81.8281 17.3281 81.7031 17.2188 81.5781 17.0938C81.4688 16.9375 81.4141 16.8516 81.4141 16.8359C81.4141 16.8047 81.3984 16.7734 81.3672 16.7422C81.3359 16.6953 81.2812 16.6328 81.2031 16.5547C81.1406 16.4766 81.0703 16.3828 80.9922 16.2734C80.9297 16.1641 80.8359 16.0547 80.7109 15.9453C80.6016 15.8203 80.5547 15.6797 80.5703 15.5234C80.6016 15.3516 80.6016 15.1875 80.5703 15.0312C80.5391 14.875 80.5078 14.7344 80.4766 14.6094C80.4453 14.4844 80.4375 14.3594 80.4531 14.2344C80.4844 14.1094 80.5 14.0234 80.5 13.9766C80.5 13.9297 80.5234 13.8281 80.5703 13.6719C80.6328 13.5156 80.6797 13.4141 80.7109 13.3672C80.7422 13.3203 80.7734 13.2344 80.8047 13.1094C80.8516 12.9688 80.8828 12.8984 80.8984 12.8984C80.9297 12.8828 80.9453 12.8594 80.9453 12.8281C80.9609 12.7969 80.9766 12.75 80.9922 12.6875C81.0078 12.6094 81.1016 12.4609 81.2734 12.2422C81.4609 12.0078 81.5938 11.8594 81.6719 11.7969C81.7656 11.7344 81.8125 11.6562 81.8125 11.5625C81.9844 11.4531 82.0703 11.3828 82.0703 11.3516C82.0703 11.3203 82.1016 11.2812 82.1641 11.2344C82.2266 11.1719 82.3203 11.1094 82.4453 11.0469C82.5859 10.9844 82.6953 10.8828 82.7734 10.7422C82.8984 10.7266 83 10.6875 83.0781 10.625C83.1719 10.5469 83.3203 10.4453 83.5234 10.3203C83.7422 10.1953 84.0156 10.1328 84.3438 10.1328C84.6875 10.1328 84.9531 10.1406 85.1406 10.1562C85.3438 10.1719 85.5078 10.1953 85.6328 10.2266C85.7734 10.2422 85.9062 10.2344 86.0312 10.2031ZM87.0156 13.2031V12.8281C86.8906 12.7031 86.7656 12.5156 86.6406 12.2656C86.5781 12.2344 86.5234 12.2031 86.4766 12.1719C86.4453 12.1406 86.4062 12.1094 86.3594 12.0781C86.3281 12.0469 86.2969 12.0078 86.2656 11.9609C86.25 11.9141 86.2266 11.875 86.1953 11.8438C86.1328 11.8281 86.0469 11.8047 85.9375 11.7734C85.8281 11.7422 85.7344 11.7344 85.6562 11.75C85.5625 11.75 85.4375 11.7109 85.2812 11.6328C85.1406 11.5391 84.9453 11.5156 84.6953 11.5625C84.4609 11.6094 84.2969 11.6562 84.2031 11.7031C84.125 11.75 84.0078 11.7656 83.8516 11.75C83.7578 11.8438 83.6641 11.9531 83.5703 12.0781C83.4766 12.2031 83.4062 12.2812 83.3594 12.3125C83.3281 12.3438 83.2812 12.4141 83.2188 12.5234C83.1719 12.6328 83.1172 12.7188 83.0547 12.7812C82.9766 12.8594 82.9453 12.9453 82.9609 13.0391C82.9766 13.1172 82.9609 13.2031 82.9141 13.2969C82.6641 13.8594 82.6719 14.5156 82.9375 15.2656C83 15.4375 83.0312 15.6172 83.0312 15.8047C83.125 15.9141 83.1953 16.0312 83.2422 16.1562C83.2891 16.2656 83.3438 16.3828 83.4062 16.5078C83.4688 16.6328 83.5391 16.7344 83.6172 16.8125C83.6953 16.8906 83.7734 16.9844 83.8516 17.0938C84.0703 17.1875 84.2422 17.2344 84.3672 17.2344C84.4922 17.2188 84.6641 17.1719 84.8828 17.0938C85.0703 16.9844 85.1875 16.9375 85.2344 16.9531C85.2812 16.9531 85.3203 16.9453 85.3516 16.9297C85.3828 16.8984 85.4297 16.8516 85.4922 16.7891C85.5703 16.7266 85.6328 16.6953 85.6797 16.6953C85.7266 16.6953 85.7891 16.6719 85.8672 16.625C85.9453 16.5625 86.0234 16.4766 86.1016 16.3672C86.1953 16.2578 86.2969 16.1875 86.4062 16.1562C86.4375 16.1094 86.4531 16.0625 86.4531 16.0156C86.4688 15.9531 86.4844 15.8984 86.5 15.8516C86.6406 15.7734 86.7422 15.6641 86.8047 15.5234C86.8828 15.3828 86.9844 15.25 87.1094 15.125C87.1094 15.0469 87.0938 14.9609 87.0625 14.8672C87.0469 14.7734 87.0547 14.6719 87.0859 14.5625C87.1328 14.4375 87.1484 14.3672 87.1328 14.3516C87.1328 14.3203 87.1328 14.2422 87.1328 14.1172C87.1484 13.9766 87.1719 13.875 87.2031 13.8125C87.25 13.75 87.2578 13.6797 87.2266 13.6016C87.2109 13.5078 87.1719 13.4375 87.1094 13.3906C87.0625 13.3438 87.0312 13.2812 87.0156 13.2031ZM94.6094 3.75781C95.0156 3.41406 95.4219 3.24219 95.8281 3.24219C95.9688 3.27344 96.0547 3.28125 96.0859 3.26562C96.1172 3.25 96.1797 3.24219 96.2734 3.24219C96.3672 3.24219 96.4453 3.25781 96.5078 3.28906C96.5703 3.30469 96.6641 3.29688 96.7891 3.26562C96.9297 3.23437 97.125 3.32031 97.375 3.52344C97.625 3.71094 97.7891 3.8125 97.8672 3.82812C97.8672 3.875 97.9453 3.9375 98.1016 4.01562C98.2734 4.09375 98.375 4.15625 98.4062 4.20312C98.4219 4.25 98.4219 4.29688 98.4062 4.34375C98.4062 4.39062 98.4375 4.46094 98.5 4.55469C98.5781 4.64844 98.6094 4.70313 98.5938 4.71875C98.5938 4.73437 98.6172 4.79688 98.6641 4.90625C98.7109 5 98.7578 5.07031 98.8047 5.11719C98.8516 5.14844 98.8906 5.17969 98.9219 5.21094C98.9531 5.24219 98.9453 5.3125 98.8984 5.42188C98.8672 5.53125 98.8828 5.66406 98.9453 5.82031C99.0078 5.97656 99.0391 6.17188 99.0391 6.40625L98.8281 6.96875C98.7812 7.09375 98.7422 7.20312 98.7109 7.29688C98.6328 7.35938 98.5938 7.44531 98.5938 7.55469C98.5938 7.66406 98.5234 7.75 98.3828 7.8125C98.1641 7.92188 97.9609 8.07031 97.7734 8.25781C97.6016 8.32031 97.5156 8.36719 97.5156 8.39844C97.5156 8.41406 97.4688 8.41406 97.375 8.39844C97.2969 8.38281 97.2188 8.39062 97.1406 8.42188C97.0625 8.4375 96.9609 8.4375 96.8359 8.42188C96.8047 8.39062 96.7656 8.36719 96.7188 8.35156C96.6719 8.33594 96.6562 8.28906 96.6719 8.21094C96.5938 8.19531 96.5312 8.20312 96.4844 8.23438C96.4375 8.26562 96.375 8.26562 96.2969 8.23438C96.2656 8.09375 96.1875 8 96.0625 7.95312C95.9375 7.89062 95.8594 7.78906 95.8281 7.64844L96.1797 7.34375C96.2266 7.375 96.2891 7.38281 96.3672 7.36719C96.4453 7.35156 96.5234 7.35938 96.6016 7.39062C96.6953 7.42188 96.7891 7.46094 96.8828 7.50781C97.1484 7.63281 97.375 7.5625 97.5625 7.29688C97.75 7.03125 97.8516 6.79688 97.8672 6.59375C97.8984 6.39062 97.9297 6.20312 97.9609 6.03125C97.8828 5.92188 97.8516 5.8125 97.8672 5.70312C97.8828 5.57812 97.8281 5.45313 97.7031 5.32812C97.6562 5.125 97.6094 5.00781 97.5625 4.97656C97.5156 4.94531 97.4766 4.89063 97.4453 4.8125C97.3359 4.78125 97.2266 4.74219 97.1172 4.69531C97.0234 4.63281 96.9219 4.57812 96.8125 4.53125C96.7031 4.46875 96.5781 4.4375 96.4375 4.4375C96.3125 4.4375 96.1953 4.39062 96.0859 4.29688C95.8359 4.32813 95.6484 4.42969 95.5234 4.60156C95.3984 4.77344 95.25 4.89844 95.0781 4.97656C95 5.14844 94.9141 5.29687 94.8203 5.42188C94.7422 5.53125 94.6875 5.70312 94.6562 5.9375C94.6406 6.15625 94.625 6.35156 94.6094 6.52344C94.6094 6.67969 94.5781 6.82031 94.5156 6.94531C94.4688 7.07031 94.4531 7.19531 94.4688 7.32031C94.4844 7.44531 94.5078 7.65625 94.5391 7.95312C94.5859 8.42188 94.6094 8.80469 94.6094 9.10156L94.5625 9.35938L94.6797 9.80469V10.3203C94.6641 10.4766 94.6875 10.6406 94.75 10.8125L94.7031 11.1406L94.7969 12.1953C94.8281 12.1953 94.8594 12.2188 94.8906 12.2656C94.9844 12.375 95.1016 12.3984 95.2422 12.3359C95.3828 12.2578 95.5 12.2344 95.5938 12.2656C95.7031 12.2812 95.7734 12.2578 95.8047 12.1953C95.9297 12.2734 96.0312 12.2891 96.1094 12.2422C96.2031 12.1953 96.3047 12.1641 96.4141 12.1484C96.5234 12.1172 96.6406 12.1094 96.7656 12.125C96.8906 12.1406 97.0156 12.1484 97.1406 12.1484C97.2656 12.1484 97.375 12.1406 97.4688 12.125C97.5625 12.1094 97.6406 12.1406 97.7031 12.2188C97.7656 12.2969 97.8047 12.4297 97.8203 12.6172C97.8516 12.7891 97.8594 12.9141 97.8438 12.9922C97.7344 13.0703 97.6172 13.1094 97.4922 13.1094C97.3672 13.1094 97.25 13.0703 97.1406 12.9922C97.0469 13.0078 96.9844 13.0469 96.9531 13.1094C96.9219 13.1562 96.8672 13.1797 96.7891 13.1797H96.4141C96.2578 13.1953 96.1641 13.1953 96.1328 13.1797C96.1172 13.1484 96.0781 13.1406 96.0156 13.1562C95.9688 13.1719 95.9141 13.1953 95.8516 13.2266C95.6016 13.3516 95.375 13.3984 95.1719 13.3672C95.1094 13.4297 95.0312 13.4844 94.9375 13.5312C94.8594 13.5625 94.7969 13.625 94.75 13.7188C94.7188 13.7969 94.7188 13.875 94.75 13.9531C94.7969 14.0156 94.8203 14.2656 94.8203 14.7031L94.7969 15.3594C94.7969 15.6875 94.8047 15.9844 94.8203 16.25C94.8359 16.5156 94.8359 16.7422 94.8203 16.9297C94.8047 17.1016 94.8125 17.25 94.8438 17.375C94.875 17.5 94.8984 17.625 94.9141 17.75C94.9609 18.1562 94.9844 18.4531 94.9844 18.6406V18.9922L95.0547 19.2734C95.0547 19.3672 95.0391 19.4688 95.0078 19.5781C94.9922 19.6875 94.9922 19.7891 95.0078 19.8828C95.0391 19.9766 95.0625 20.0547 95.0781 20.1172C95.0938 20.1641 95.0938 20.2031 95.0781 20.2344L94.9844 20.5625L95.1484 21.875C95.1484 22 95.1562 22.0859 95.1719 22.1328L95.2656 22.4844L95.3125 23.3047C95.3125 23.5234 95.3047 23.8203 95.2891 24.1953C95.2891 24.5859 95.2969 24.8984 95.3125 25.1328C95.3594 25.2109 95.4375 25.2656 95.5469 25.2969C95.6562 25.3281 95.75 25.375 95.8281 25.4375C95.9531 25.4219 96.0703 25.3828 96.1797 25.3203C96.3047 25.2578 96.4141 25.2344 96.5078 25.25C96.6172 25.2812 96.6953 25.3281 96.7422 25.3906C96.7891 25.4688 96.8672 25.5234 96.9766 25.5547C97.1016 25.8672 97.1406 26.1016 97.0938 26.2578C97.0156 26.2891 96.9375 26.3281 96.8594 26.375C96.7969 26.4375 96.6719 26.4609 96.4844 26.4453C96.3125 26.4453 96.1719 26.4922 96.0625 26.5859C95.9531 26.6797 95.8516 26.7266 95.7578 26.7266C95.6641 26.7266 95.5781 26.7344 95.5 26.75C95.4375 26.7812 95.3828 26.8125 95.3359 26.8438C95.2891 26.875 95.2266 26.9062 95.1484 26.9375C95.0234 26.9375 94.9453 26.9141 94.9141 26.8672C94.8828 26.8359 94.8281 26.8438 94.75 26.8906C94.5938 26.8281 94.4609 26.7969 94.3516 26.7969C94.2578 26.7969 94.1328 26.8203 93.9766 26.8672C93.8203 26.9141 93.7344 26.9453 93.7188 26.9609C93.7031 26.9766 93.6719 26.9922 93.625 27.0078C93.5781 27.0391 93.5312 27.0469 93.4844 27.0312C93.4375 27.0156 93.3828 27.0156 93.3203 27.0312C93.2734 27.0625 93.2266 27.0938 93.1797 27.125C93.1328 27.1562 93.0859 27.1797 93.0391 27.1953C92.8203 27.1172 92.5312 27.1641 92.1719 27.3359C91.8125 27.5078 91.5781 27.5703 91.4688 27.5234C91.3594 27.4922 91.2578 27.4609 91.1641 27.4297C91.1328 27.3516 91.1172 27.2188 91.1172 27.0312C91.1172 26.8438 91.125 26.7109 91.1406 26.6328C91.3125 26.5703 91.4141 26.5234 91.4453 26.4922C91.4766 26.4609 91.5234 26.4375 91.5859 26.4219L91.9141 26.2812C92.0703 26.2031 92.2031 26.1406 92.3125 26.0938C92.4375 26.0625 92.5703 25.9922 92.7109 25.8828C92.7422 25.8047 92.7656 25.6641 92.7812 25.4609C92.7969 25.2734 92.8906 25.1406 93.0625 25.0625C93.0312 24.9844 92.9922 24.9375 92.9453 24.9219C92.8828 24.875 92.8516 24.6641 92.8516 24.2891C92.7266 23.8047 92.6562 23.4062 92.6406 23.0938C92.6406 22.7812 92.625 22.5469 92.5938 22.3906L92.5 21.875L92.4531 21.0781L92.2891 19.5781C92.2891 19.4062 92.3125 19.25 92.3594 19.1094C92.2656 18.9062 92.2188 18.6875 92.2188 18.4531C92.1094 17.5156 92.0547 16.8359 92.0547 16.4141V15.3828C92.0703 15.3203 92.0625 15.2266 92.0312 15.1016C91.9531 14.8203 91.9375 14.5234 91.9844 14.2109C91.9219 13.8516 91.8438 13.6094 91.75 13.4844C91.2812 13.375 91 13.3594 90.9062 13.4375C90.8281 13.5 90.75 13.5391 90.6719 13.5547C90.5938 13.5703 90.5 13.5625 90.3906 13.5312C90.2812 13.5 90.1875 13.5234 90.1094 13.6016C89.9531 13.5859 89.8438 13.5312 89.7812 13.4375C89.7188 13.4219 89.6562 13.4219 89.5938 13.4375C89.5312 13.4375 89.4922 13.4062 89.4766 13.3438C89.4297 13.125 89.5703 12.9219 89.8984 12.7344C90.0391 12.7031 90.1094 12.6719 90.1094 12.6406C90.125 12.6094 90.1641 12.5703 90.2266 12.5234C90.3047 12.4766 90.4141 12.4688 90.5547 12.5C90.7109 12.5156 90.9062 12.5078 91.1406 12.4766L91.75 12.3828C91.8125 12.3828 91.8672 12.375 91.9141 12.3594L91.9609 12.0547L91.9141 11.7031C91.9141 11.5156 91.9297 11.3281 91.9609 11.1406C92.0078 10.9531 92.0156 10.7734 91.9844 10.6016L91.9141 9.66406C91.9297 9.57031 91.9688 9.46875 92.0312 9.35938C92.0625 9.15625 92.0703 8.95312 92.0547 8.75C92.0391 8.54688 92.0391 8.35938 92.0547 8.1875C92.0859 8 92.1094 7.88281 92.125 7.83594C92.1562 7.77344 92.1719 7.71875 92.1719 7.67188C92.1875 7.60938 92.2031 7.55469 92.2188 7.50781C92.2344 7.44531 92.2422 7.38281 92.2422 7.32031C92.2422 7.25781 92.2578 7.20312 92.2891 7.15625C92.3672 7.01562 92.4453 6.8125 92.5234 6.54688C92.6016 6.28125 92.6562 6.10156 92.6875 6.00781C92.7188 5.91406 92.7344 5.82031 92.7344 5.72656C92.7969 5.69531 92.8359 5.64063 92.8516 5.5625C92.8828 5.48437 92.9219 5.39844 92.9688 5.30469C93.0312 5.21094 93.125 5.09375 93.25 4.95312C93.375 4.8125 93.4766 4.65625 93.5547 4.48438C93.7578 4.375 93.9609 4.16406 94.1641 3.85156C94.2734 3.86719 94.3438 3.85156 94.375 3.80469C94.4219 3.74219 94.5 3.72656 94.6094 3.75781ZM106.75 11.1641L106.727 11.75C106.727 11.7812 106.703 11.8281 106.656 11.8906C106.625 11.9375 106.57 12.0391 106.492 12.1953C106.414 12.3359 106.273 12.4844 106.07 12.6406C105.945 12.7031 105.875 12.75 105.859 12.7812C105.859 12.8125 105.828 12.8359 105.766 12.8516C105.703 12.8516 105.656 12.875 105.625 12.9219C105.594 12.9531 105.555 12.9844 105.508 13.0156C105.477 13.0312 105.422 13.0391 105.344 13.0391C105.281 13.0391 105.227 13.0625 105.18 13.1094C105.148 13.1719 105.102 13.1797 105.039 13.1328C104.992 13.0859 104.945 13.0938 104.898 13.1562C104.82 13.1406 104.766 13.1641 104.734 13.2266C104.703 13.2734 104.602 13.3203 104.43 13.3672C104.258 13.3984 104.141 13.4531 104.078 13.5312C103.938 13.5312 103.82 13.5469 103.727 13.5781C103.633 13.6094 103.523 13.6172 103.398 13.6016C103.289 13.5703 103.195 13.5234 103.117 13.4609C103.055 13.3984 102.984 13.3594 102.906 13.3438C102.844 13.3281 102.789 13.3359 102.742 13.3672C102.695 13.3984 102.641 13.3984 102.578 13.3672C102.469 13.6328 102.43 14.0547 102.461 14.6328L102.484 15.125L102.367 15.5234L102.508 16.6016L102.391 17.0938C102.391 17.2188 102.398 17.3438 102.414 17.4688C102.43 17.5781 102.43 17.6719 102.414 17.75C102.367 17.9844 102.266 18.2188 102.109 18.4531C101.953 18.6719 101.805 18.7734 101.664 18.7578C101.523 18.7266 101.438 18.6953 101.406 18.6641C101.375 18.6172 101.344 18.5391 101.312 18.4297C101.219 18.4766 101.141 18.4844 101.078 18.4531C101.031 18.4219 100.969 18.3906 100.891 18.3594C100.812 18.0938 100.734 17.8438 100.656 17.6094C100.578 17.3594 100.578 17.0625 100.656 16.7188C100.75 16.5312 100.805 16.4062 100.82 16.3438L100.75 15.8984C100.719 15.7422 100.703 15.5938 100.703 15.4531C100.703 15.2969 100.742 15.1484 100.82 15.0078C100.742 14.8672 100.711 14.7188 100.727 14.5625C100.742 14.3906 100.727 14.2188 100.68 14.0469L100.867 13.625C100.82 13.4062 100.812 13.1562 100.844 12.875C100.891 12.5781 100.898 12.2109 100.867 11.7734C100.852 11.3359 100.961 10.9531 101.195 10.625C101.227 10.5938 101.258 10.5547 101.289 10.5078C101.336 10.4453 101.391 10.4062 101.453 10.3906C101.516 10.375 101.578 10.3906 101.641 10.4375C101.703 10.4688 101.773 10.4766 101.852 10.4609C102.008 10.7891 102.156 11.0078 102.297 11.1172L102.273 11.4219C102.336 11.6719 102.391 11.8516 102.438 11.9609C102.5 12.0547 102.547 12.1797 102.578 12.3359C102.75 12.3672 102.898 12.375 103.023 12.3594C103.148 12.3438 103.273 12.375 103.398 12.4531C103.602 12.3594 103.758 12.2266 103.867 12.0547C103.992 11.8672 104.141 11.7031 104.312 11.5625C104.344 11.4375 104.367 11.3438 104.383 11.2812C104.398 11.2031 104.422 11.1172 104.453 11.0234C104.484 10.9297 104.516 10.8594 104.547 10.8125C104.578 10.75 104.633 10.6484 104.711 10.5078C104.789 10.3516 104.812 10.2422 104.781 10.1797C104.766 10.1016 104.797 10.0469 104.875 10.0156C104.828 9.73438 104.812 9.46875 104.828 9.21875C104.859 8.95312 104.859 8.73438 104.828 8.5625C104.797 8.375 104.758 8.24219 104.711 8.16406C104.664 8.07031 104.633 7.98438 104.617 7.90625C104.617 7.8125 104.625 7.73438 104.641 7.67188C104.656 7.60938 104.648 7.50781 104.617 7.36719C104.602 7.21094 104.531 7.05469 104.406 6.89844C104.281 6.72656 104.25 6.52344 104.312 6.28906C104.266 6.16406 104.203 6.0625 104.125 5.98438C104.047 5.90625 103.992 5.80469 103.961 5.67969C103.883 5.61719 103.812 5.54688 103.75 5.46875C103.703 5.39062 103.648 5.3125 103.586 5.23438C103.477 5.21875 103.383 5.1875 103.305 5.14062C103.227 5.09375 103.148 5.04688 103.07 5C102.789 4.95312 102.555 4.97656 102.367 5.07031C102.195 5.14844 101.992 5.19531 101.758 5.21094C101.648 5.25781 101.578 5.35156 101.547 5.49219C101.516 5.61719 101.453 5.71094 101.359 5.77344C101.328 5.96094 101.312 6.10938 101.312 6.21875C101.312 6.32812 101.266 6.45312 101.172 6.59375C101.219 7 101.211 7.28906 101.148 7.46094C101.227 7.60156 101.352 7.69531 101.523 7.74219C101.695 7.77344 101.844 7.82812 101.969 7.90625C102.062 8.03125 102.102 8.17188 102.086 8.32812C102.086 8.48438 102.047 8.60938 101.969 8.70312C101.75 9 101.539 9.01562 101.336 8.75C101.07 8.73438 100.859 8.67188 100.703 8.5625C100.562 8.45312 100.406 8.35938 100.234 8.28125C100.203 8.09375 100.125 7.97656 100 7.92969C99.9688 7.77344 99.9297 7.64844 99.8828 7.55469C99.8516 7.44531 99.8047 7.30469 99.7422 7.13281C99.6953 6.96094 99.7031 6.71875 99.7656 6.40625C99.8281 6.09375 99.8906 5.875 99.9531 5.75C100.031 5.625 100.062 5.54688 100.047 5.51562C100.031 5.46875 100.047 5.41406 100.094 5.35156C100.156 5.28906 100.211 5.23438 100.258 5.1875C100.32 5.125 100.375 5.05469 100.422 4.97656C100.5 4.89844 100.57 4.82031 100.633 4.74219C100.695 4.64844 100.766 4.58594 100.844 4.55469C100.938 4.50781 100.992 4.47656 101.008 4.46094C101.023 4.42969 101.039 4.40625 101.055 4.39062C101.086 4.375 101.133 4.36719 101.195 4.36719C101.32 4.36719 101.508 4.24219 101.758 3.99219C101.867 3.97656 101.977 3.96875 102.086 3.96875C102.195 3.96875 102.312 3.9375 102.438 3.875C102.578 3.8125 102.664 3.79687 102.695 3.82812C102.727 3.84375 102.805 3.85156 102.93 3.85156C103.055 3.83594 103.18 3.82031 103.305 3.80469C103.492 3.77344 103.68 3.80469 103.867 3.89844C104.07 3.97656 104.219 4.01562 104.312 4.01562C104.406 4.01562 104.5 4.05469 104.594 4.13281C104.703 4.19531 104.766 4.22656 104.781 4.22656C104.797 4.21094 104.82 4.20312 104.852 4.20312C104.945 4.3125 105.023 4.38281 105.086 4.41406C105.148 4.42969 105.195 4.47656 105.227 4.55469C105.305 4.55469 105.359 4.57031 105.391 4.60156C105.438 4.63281 105.5 4.64062 105.578 4.625C105.609 4.70313 105.648 4.77344 105.695 4.83594C105.758 4.89844 105.836 4.98438 105.93 5.09375C106.023 5.20312 106.078 5.27344 106.094 5.30469C106.125 5.33594 106.172 5.39844 106.234 5.49219C106.312 5.57031 106.383 5.67969 106.445 5.82031L106.68 6.26562C106.789 6.34375 106.867 6.49219 106.914 6.71094C106.961 6.91406 107.086 7.22656 107.289 7.64844C107.32 7.77344 107.328 7.90625 107.312 8.04688C107.297 8.1875 107.297 8.34375 107.312 8.51562L107.359 9.03125C107.375 9.07812 107.367 9.13281 107.336 9.19531C107.32 9.24219 107.312 9.28906 107.312 9.33594L107.336 9.66406L107.195 10.25C107.195 10.3281 107.164 10.4297 107.102 10.5547C107.055 10.6797 107.016 10.7578 106.984 10.7891C106.953 10.8203 106.922 10.8828 106.891 10.9766C106.859 11.0547 106.828 11.1016 106.797 11.1172C106.766 11.1328 106.75 11.1484 106.75 11.1641ZM100.398 22.9062L100.445 22.5547C100.445 22.3984 100.484 22.2812 100.562 22.2031C100.641 22.125 100.695 22.0312 100.727 21.9219C100.852 21.9062 100.961 21.8672 101.055 21.8047C101.148 21.7422 101.258 21.6953 101.383 21.6641C101.508 21.6172 101.594 21.5938 101.641 21.5938C101.688 21.5781 101.789 21.6094 101.945 21.6875C102.102 21.7656 102.273 21.9688 102.461 22.2969C102.586 22.625 102.641 22.8672 102.625 23.0234C102.625 23.1953 102.508 23.375 102.273 23.5625C102.211 23.5938 102.141 23.6094 102.062 23.6094C101.984 23.625 101.906 23.6484 101.828 23.6797C101.766 23.7109 101.703 23.7344 101.641 23.75C101.594 23.7812 101.539 23.8125 101.477 23.8438C101.383 23.8125 101.289 23.7578 101.195 23.6797C101.117 23.6172 101.008 23.5469 100.867 23.4688C100.727 23.4062 100.617 23.3359 100.539 23.2578C100.492 23.1328 100.453 23.0547 100.422 23.0234C100.406 22.9922 100.398 22.9531 100.398 22.9062Z" fill="white"/>
</g>
<defs>
<filter id="filter0_d_524_3" x="0.835938" y="0.679688" width="111.547" height="32.9141" filterUnits="userSpaceOnUse" color-interpolation-filters="sRGB">
<feFlood flood-opacity="0" result="BackgroundImageFix"/>
<feColorMatrix in="SourceAlpha" type="matrix" values="0 0 0 0 0 0 0 0 0 0 0 0 0 0 0 0 0 0 127 0" result="hardAlpha"/>
<feOffset dx="1" dy="2"/>
<feGaussianBlur stdDeviation="2"/>
<feComposite in2="hardAlpha" operator="out"/>
<feColorMatrix type="matrix" values="0 0 0 0 0 0 0 0 0 0 0 0 0 0 0 0 0 0 0.25 0"/>
<feBlend mode="normal" in2="BackgroundImageFix" result="effect1_dropShadow_524_3"/>
<feBlend mode="normal" in="SourceGraphic" in2="effect1_dropShadow_524_3" result="shape"/>
</filter>
</defs>
</svg>
